<svg width="32" height="32" viewBox="0 0 32 32" fill="none" xmlns="http://www.w3.org/2000/svg">
<path fill-rule="evenodd" clip-rule="evenodd" d="M16 32C24.8366 32 32 24.8366 32 16C32 7.16344 24.8366 0 16 0C7.16344 0 0 7.16344 0 16C0 24.8366 7.16344 32 16 32ZM25.2362 14.4931L25.3329 14.1347C25.3778 13.9688 25.2784 13.7981 25.1111 13.7535C22.7385 13.123 19.984 14.7004 19.2671 17.3546L18.8611 18.8573C18.6819 19.5209 17.9933 19.9153 17.3243 19.7375L15.8094 19.3347C13.1337 18.6237 10.3792 20.2011 9.74347 22.5546C9.6987 22.7205 9.79816 22.8914 9.96526 22.9358L10.3266 23.0317C10.7446 23.1429 10.7798 23.4074 10.405 23.6221L8.09583 24.9445C7.79602 25.1163 7.41193 25.0143 7.23876 24.7167L5.90564 22.4262C5.68914 22.0544 5.85288 21.8428 6.27102 21.9538L6.63224 22.0499C6.7995 22.0943 6.97172 21.9957 7.01649 21.8299C8.05554 17.9833 12.3593 15.5186 16.5401 16.6297C17.6603 12.4827 21.9641 10.0178 25.8419 11.0485C26.0091 11.093 26.1812 10.9944 26.226 10.8285L26.3228 10.4702C26.4348 10.0554 26.7015 10.0206 26.9179 10.3924L28.2511 12.683C28.4243 12.9804 28.3213 13.3613 28.0215 13.533L25.7123 14.8556C25.3375 15.0702 25.1241 14.9078 25.2362 14.4931ZM18.5698 9.11574C14.389 8.00448 10.0853 10.4692 8.96507 14.6164L11.6921 15.3411C12.4091 12.687 15.1634 11.1095 17.839 11.8208L18.5698 9.11574Z" fill="#00808B"/>
</svg>
