<svg width="64" height="63" viewBox="0 0 64 63" fill="none" xmlns="http://www.w3.org/2000/svg">
<path fill-rule="evenodd" clip-rule="evenodd" d="M32 62.0606C49.6731 62.0606 64 48.1679 64 31.0303C64 13.8927 49.6731 0 32 0C14.3269 0 0 13.8927 0 31.0303C0 48.1679 14.3269 62.0606 32 62.0606ZM50.4723 28.1079L50.6658 27.4127C50.7556 27.0909 50.5567 26.7599 50.2222 26.6735C45.4769 25.4507 39.968 28.51 38.5343 33.6573L37.7223 36.5717C37.3638 37.8588 35.9867 38.6235 34.6486 38.2787L31.6188 37.4977C26.2675 36.1186 20.7585 39.1779 19.4869 43.7423C19.3974 44.0641 19.5963 44.3954 19.9305 44.4815L20.6533 44.6676C21.4893 44.8833 21.5596 45.3961 20.81 45.8126L16.1917 48.3772C15.592 48.7104 14.8239 48.5126 14.4775 47.9355L11.8113 43.4931C11.3783 42.7721 11.7058 42.3617 12.542 42.5771L13.2645 42.7635C13.599 42.8496 13.9434 42.6583 14.033 42.3368C16.1111 34.8767 24.7187 30.0967 33.0803 32.2515C35.3205 24.2088 43.9281 19.4284 51.6837 21.4273C52.0182 21.5138 52.3624 21.3225 52.4519 21.0007L52.6457 20.3058C52.8696 19.5014 53.403 19.434 53.8357 20.155L56.5022 24.5974C56.8486 25.1741 56.6426 25.9127 56.043 26.2459L51.4247 28.8108C50.6751 29.227 50.2481 28.912 50.4723 28.1079ZM37.1396 17.679C28.778 15.5238 20.1707 20.3039 17.9301 28.3469L23.3841 29.7524C24.8181 24.6051 30.3268 21.5458 35.6781 22.9251L37.1396 17.679Z" fill="white"/>
</svg>
