<svg width="16" height="16" viewBox="0 0 16 16" fill="none" xmlns="http://www.w3.org/2000/svg">
<path d="M8.8 7V7.2H9H15C15.2122 7.2 15.4157 7.28429 15.5657 7.43431C15.7157 7.58434 15.8 7.78783 15.8 8C15.8 8.21217 15.7157 8.41566 15.5657 8.56569C15.4157 8.71571 15.2122 8.8 15 8.8H9H8.8V9V15C8.8 15.2122 8.71571 15.4157 8.56569 15.5657C8.41566 15.7157 8.21217 15.8 8 15.8C7.78783 15.8 7.58434 15.7157 7.43431 15.5657C7.28429 15.4157 7.2 15.2122 7.2 15V9V8.8H7H1C0.787827 8.8 0.584344 8.71571 0.434315 8.56569C0.284286 8.41566 0.2 8.21217 0.2 8C0.2 7.78783 0.284286 7.58434 0.434315 7.43431C0.584344 7.28429 0.787827 7.2 1 7.2H7H7.2V7V1C7.2 0.787827 7.28429 0.584344 7.43431 0.434315C7.58434 0.284286 7.78783 0.2 8 0.2C8.21217 0.2 8.41566 0.284286 8.56569 0.434315C8.71571 0.584344 8.8 0.787827 8.8 1V7Z" fill="#00808B" stroke="#00808B" stroke-width="0.4"/>
</svg>
