<svg width="24" height="20" viewBox="0 0 24 20" fill="none" xmlns="http://www.w3.org/2000/svg">
<path d="M22.5 8.24967H21.3334V7.08301C21.3334 6.77359 21.2105 6.47684 20.9917 6.25805C20.7729 6.03926 20.4761 5.91634 20.1667 5.91634C19.8573 5.91634 19.5605 6.03926 19.3417 6.25805C19.123 6.47684 19 6.77359 19 7.08301V8.24967H17.8334C17.524 8.24967 17.2272 8.37259 17.0084 8.59138C16.7896 8.81018 16.6667 9.10692 16.6667 9.41634C16.6667 9.72576 16.7896 10.0225 17.0084 10.2413C17.2272 10.4601 17.524 10.583 17.8334 10.583H19V11.7497C19 12.0591 19.123 12.3558 19.3417 12.5746C19.5605 12.7934 19.8573 12.9163 20.1667 12.9163C20.4761 12.9163 20.7729 12.7934 20.9917 12.5746C21.2105 12.3558 21.3334 12.0591 21.3334 11.7497V10.583H22.5C22.8095 10.583 23.1062 10.4601 23.325 10.2413C23.5438 10.0225 23.6667 9.72576 23.6667 9.41634C23.6667 9.10692 23.5438 8.81018 23.325 8.59138C23.1062 8.37259 22.8095 8.24967 22.5 8.24967ZM13.5167 10.2563C14.1392 9.7175 14.6385 9.05104 14.9807 8.3022C15.3229 7.55336 15.5 6.73967 15.5 5.91634C15.5 4.36924 14.8855 2.88551 13.7915 1.79155C12.6975 0.697589 11.2138 0.0830078 9.66671 0.0830078C8.11961 0.0830078 6.63588 0.697589 5.54192 1.79155C4.44796 2.88551 3.83337 4.36924 3.83337 5.91634C3.83336 6.73967 4.01048 7.55336 4.35269 8.3022C4.6949 9.05104 5.1942 9.7175 5.81671 10.2563C4.18354 10.9959 2.79792 12.1901 1.82552 13.6963C0.853118 15.2025 0.335091 16.9569 0.333374 18.7497C0.333374 19.0591 0.45629 19.3558 0.675083 19.5746C0.893875 19.7934 1.19062 19.9163 1.50004 19.9163C1.80946 19.9163 2.10621 19.7934 2.325 19.5746C2.54379 19.3558 2.66671 19.0591 2.66671 18.7497C2.66671 16.8932 3.40421 15.1127 4.71696 13.7999C6.02971 12.4872 7.81019 11.7497 9.66671 11.7497C11.5232 11.7497 13.3037 12.4872 14.6165 13.7999C15.9292 15.1127 16.6667 16.8932 16.6667 18.7497C16.6667 19.0591 16.7896 19.3558 17.0084 19.5746C17.2272 19.7934 17.524 19.9163 17.8334 19.9163C18.1428 19.9163 18.4395 19.7934 18.6583 19.5746C18.8771 19.3558 19 19.0591 19 18.7497C18.9983 16.9569 18.4803 15.2025 17.5079 13.6963C16.5355 12.1901 15.1499 10.9959 13.5167 10.2563ZM9.66671 9.41634C8.97447 9.41634 8.29778 9.21107 7.72221 8.82648C7.14664 8.4419 6.69804 7.89527 6.43313 7.25573C6.16822 6.61619 6.09891 5.91246 6.23396 5.23352C6.36901 4.55459 6.70235 3.93095 7.19183 3.44147C7.68132 2.95198 8.30496 2.61864 8.98389 2.48359C9.66282 2.34854 10.3666 2.41786 11.0061 2.68276C11.6456 2.94767 12.1923 3.39627 12.5768 3.97184C12.9614 4.54742 13.1667 5.22411 13.1667 5.91634C13.1667 6.8446 12.798 7.73484 12.1416 8.39122C11.4852 9.04759 10.595 9.41634 9.66671 9.41634Z" fill="white"/>
</svg>
