<svg width="16" height="16" viewBox="0 0 16 16" fill="none" xmlns="http://www.w3.org/2000/svg">
<path d="M1.20898 8.99971H12.379L7.49898 13.8797C7.10898 14.2697 7.10898 14.9097 7.49898 15.2997C7.88898 15.6897 8.51898 15.6897 8.90898 15.2997L15.499 8.70971C15.889 8.31971 15.889 7.68971 15.499 7.29971L8.91898 0.699712C8.73215 0.512459 8.4785 0.407227 8.21398 0.407227C7.94947 0.407227 7.69582 0.512459 7.50898 0.699712C7.11898 1.08971 7.11898 1.71971 7.50898 2.10971L12.379 6.99971H1.20898C0.658984 6.99971 0.208984 7.44971 0.208984 7.99971C0.208984 8.54971 0.658984 8.99971 1.20898 8.99971Z" fill="#00808B"/>
</svg>
