<svg width="14" height="14" viewBox="0 0 14 14" fill="none" xmlns="http://www.w3.org/2000/svg">
<path d="M12.6598 6.16674L3.3515 6.16674L7.41817 2.10008C7.74317 1.77508 7.74317 1.24174 7.41817 0.916743C7.09317 0.591743 6.56817 0.591743 6.24317 0.916743L0.751498 6.40841C0.426498 6.73341 0.426498 7.25841 0.751498 7.58341L6.23483 13.0834C6.39052 13.2395 6.6019 13.3271 6.82233 13.3271C7.04276 13.3271 7.25414 13.2395 7.40983 13.0834C7.73483 12.7584 7.73483 12.2334 7.40983 11.9084L3.3515 7.83341L12.6598 7.83341C13.1182 7.83341 13.4932 7.45841 13.4932 7.00008C13.4932 6.54174 13.1182 6.16674 12.6598 6.16674Z" fill="#0D1B1D"/>
</svg>
