<svg width="24" height="24" viewBox="0 0 24 24" fill="none" xmlns="http://www.w3.org/2000/svg">
<path fill-rule="evenodd" clip-rule="evenodd" d="M6 6H18C18.5523 6 19 6.44772 19 7V7.38197L12 10.882L5 7.38197V7C5 6.44772 5.44772 6 6 6ZM5 9.61803V17C5 17.5523 5.44772 18 6 18H18C18.5523 18 19 17.5523 19 17V9.61803L12.8944 12.6708C12.3314 12.9523 11.6686 12.9523 11.1056 12.6708L5 9.61803ZM3 7C3 5.34315 4.34315 4 6 4H18C19.6569 4 21 5.34315 21 7V17C21 18.6569 19.6569 20 18 20H6C4.34315 20 3 18.6569 3 17V7Z" fill="#0D1B1D"/>
</svg>
