<svg width="12" height="12" viewBox="0 0 12 12" fill="none" xmlns="http://www.w3.org/2000/svg">
<path d="M6.94001 6L11.14 1.80667C11.2655 1.68113 11.3361 1.51087 11.3361 1.33333C11.3361 1.1558 11.2655 0.985537 11.14 0.860002C11.0145 0.734466 10.8442 0.66394 10.6667 0.66394C10.4891 0.66394 10.3189 0.734466 10.1933 0.860002L6.00001 5.06L1.80668 0.860002C1.68114 0.734466 1.51088 0.663941 1.33334 0.663941C1.15581 0.663941 0.985546 0.734466 0.86001 0.860002C0.734474 0.985537 0.663949 1.1558 0.663949 1.33333C0.663949 1.51087 0.734474 1.68113 0.86001 1.80667L5.06001 6L0.86001 10.1933C0.797525 10.2553 0.747929 10.329 0.714083 10.4103C0.680237 10.4915 0.662811 10.5787 0.662811 10.6667C0.662811 10.7547 0.680237 10.8418 0.714083 10.9231C0.747929 11.0043 0.797525 11.078 0.86001 11.14C0.921985 11.2025 0.995719 11.2521 1.07696 11.2859C1.1582 11.3198 1.24534 11.3372 1.33334 11.3372C1.42135 11.3372 1.50849 11.3198 1.58973 11.2859C1.67097 11.2521 1.7447 11.2025 1.80668 11.14L6.00001 6.94L10.1933 11.14C10.2553 11.2025 10.3291 11.2521 10.4103 11.2859C10.4915 11.3198 10.5787 11.3372 10.6667 11.3372C10.7547 11.3372 10.8418 11.3198 10.9231 11.2859C11.0043 11.2521 11.078 11.2025 11.14 11.14C11.2025 11.078 11.2521 11.0043 11.2859 10.9231C11.3198 10.8418 11.3372 10.7547 11.3372 10.6667C11.3372 10.5787 11.3198 10.4915 11.2859 10.4103C11.2521 10.329 11.2025 10.2553 11.14 10.1933L6.94001 6Z" fill="#0D1B1D"/>
</svg>
