<svg width="18" height="17" viewBox="0 0 18 17" fill="none" xmlns="http://www.w3.org/2000/svg">
<path d="M10.4099 8.49994L16.7099 2.20994C16.8982 2.02164 17.004 1.76624 17.004 1.49994C17.004 1.23364 16.8982 0.978245 16.7099 0.789941C16.5216 0.601638 16.2662 0.49585 15.9999 0.49585C15.7336 0.49585 15.4782 0.601638 15.2899 0.789941L8.99994 7.08994L2.70994 0.789941C2.52164 0.601638 2.26624 0.49585 1.99994 0.49585C1.73364 0.49585 1.47824 0.601638 1.28994 0.789941C1.10164 0.978245 0.995847 1.23364 0.995847 1.49994C0.995847 1.76624 1.10164 2.02164 1.28994 2.20994L7.58994 8.49994L1.28994 14.7899C1.19621 14.8829 1.12182 14.9935 1.07105 15.1154C1.02028 15.2372 0.994141 15.3679 0.994141 15.4999C0.994141 15.632 1.02028 15.7627 1.07105 15.8845C1.12182 16.0064 1.19621 16.117 1.28994 16.2099C1.3829 16.3037 1.4935 16.3781 1.61536 16.4288C1.73722 16.4796 1.86793 16.5057 1.99994 16.5057C2.13195 16.5057 2.26266 16.4796 2.38452 16.4288C2.50638 16.3781 2.61698 16.3037 2.70994 16.2099L8.99994 9.90994L15.2899 16.2099C15.3829 16.3037 15.4935 16.3781 15.6154 16.4288C15.7372 16.4796 15.8679 16.5057 15.9999 16.5057C16.132 16.5057 16.2627 16.4796 16.3845 16.4288C16.5064 16.3781 16.617 16.3037 16.7099 16.2099C16.8037 16.117 16.8781 16.0064 16.9288 15.8845C16.9796 15.7627 17.0057 15.632 17.0057 15.4999C17.0057 15.3679 16.9796 15.2372 16.9288 15.1154C16.8781 14.9935 16.8037 14.8829 16.7099 14.7899L10.4099 8.49994Z" fill="white"/>
</svg>
