<svg width="18" height="18" viewBox="0 0 18 18" fill="none" xmlns="http://www.w3.org/2000/svg">
<path d="M8.99984 2.05558C7.73496 2.05558 6.55223 2.30695 5.45166 2.8097C4.35109 3.31245 3.47683 3.99062 2.82889 4.8442C2.18095 5.69779 1.85698 6.6201 1.85698 7.61113C1.85698 8.42132 2.07864 9.19352 2.52197 9.92775C2.9653 10.662 3.58999 11.2968 4.39604 11.8321L5.20519 12.3746L4.95408 13.4163C4.80527 14.0745 4.58825 14.6966 4.30304 15.2826C5.2455 14.8268 6.09805 14.2084 6.8607 13.4271L7.26063 13.0148L7.79076 13.0799C8.21859 13.1378 8.62161 13.1667 8.99984 13.1667C10.2647 13.1667 11.4474 12.9153 12.548 12.4126C13.6486 11.9098 14.5228 11.2316 15.1708 10.3781C15.8187 9.52447 16.1427 8.60216 16.1427 7.61113C16.1427 6.6201 15.8187 5.69779 15.1708 4.8442C14.5228 3.99062 13.6486 3.31245 12.548 2.8097C11.4474 2.30695 10.2647 2.05558 8.99984 2.05558ZM17.3332 7.61113C17.3332 8.86981 16.9611 10.0326 16.2171 11.0996C15.4731 12.1666 14.4624 13.0094 13.1851 13.6278C11.9078 14.2463 10.5127 14.5556 8.99984 14.5556C8.56581 14.5556 8.11628 14.5266 7.65125 14.4688C6.42357 15.7347 4.99748 16.61 3.37298 17.0946C3.06916 17.1959 2.71573 17.2755 2.31271 17.3334H2.26621C2.1732 17.3334 2.08949 17.2954 2.01509 17.2194C1.94069 17.1435 1.89108 17.044 1.86628 16.921V16.9102C1.84768 16.8812 1.84613 16.8378 1.86163 16.78C1.87713 16.7221 1.88333 16.6859 1.88023 16.6715C1.87713 16.657 1.89108 16.6226 1.92208 16.5684L1.97789 16.4707L2.04299 16.3785L2.1174 16.2808C2.1608 16.223 2.25691 16.0982 2.40572 15.9065C2.55452 15.7148 2.66148 15.5773 2.72659 15.4942C2.79169 15.411 2.8878 15.2681 3.0149 15.0656C3.14201 14.863 3.24277 14.6785 3.31717 14.5122C3.39158 14.3458 3.47528 14.1324 3.56829 13.872C3.6613 13.6116 3.7419 13.3367 3.81011 13.0473C2.83664 12.4035 2.06934 11.6078 1.50821 10.6602C0.947072 9.71255 0.666504 8.6962 0.666504 7.61113C0.666504 6.35245 1.03853 5.18962 1.78258 4.12263C2.52662 3.05565 3.53729 2.21291 4.81457 1.59442C6.09185 0.975932 7.48694 0.666687 8.99984 0.666687C10.5127 0.666687 11.9078 0.975932 13.1851 1.59442C14.4624 2.21291 15.4731 3.05565 16.2171 4.12263C16.9611 5.18962 17.3332 6.35245 17.3332 7.61113Z" fill="#0D1B1D"/>
</svg>
