<svg width="18" height="18" viewBox="0 0 18 18" fill="none" xmlns="http://www.w3.org/2000/svg">
<path d="M16.7544 0.251368C16.6754 0.171718 16.5814 0.108498 16.4778 0.065355C16.3743 0.0222121 16.2632 0 16.151 0C16.0388 0 15.9278 0.0222121 15.8242 0.065355C15.7206 0.108498 15.6267 0.171718 15.5477 0.251368L10.6274 5.18017V3.829C10.6274 3.60362 10.5378 3.38747 10.3785 3.22811C10.2191 3.06874 10.0029 2.97921 9.77756 2.97921C9.55218 2.97921 9.33603 3.06874 9.17667 3.22811C9.0173 3.38747 8.92777 3.60362 8.92777 3.829V7.22818C8.92911 7.33923 8.9522 7.44894 8.99575 7.5511C9.08198 7.75875 9.24699 7.92376 9.45464 8.00999C9.5568 8.05353 9.66651 8.07663 9.77756 8.07797H13.1767C13.4021 8.07797 13.6183 7.98844 13.7776 7.82907C13.937 7.66971 14.0265 7.45356 14.0265 7.22818C14.0265 7.0028 13.937 6.78665 13.7776 6.62728C13.6183 6.46792 13.4021 6.37838 13.1767 6.37838H11.8256L16.7544 1.45808C16.834 1.37908 16.8972 1.28509 16.9404 1.18153C16.9835 1.07798 17.0057 0.966904 17.0057 0.854722C17.0057 0.742539 16.9835 0.631466 16.9404 0.527911C16.8972 0.424355 16.834 0.330367 16.7544 0.251368ZM7.5511 8.99575C7.44894 8.9522 7.33923 8.92911 7.22818 8.92777H3.829C3.60362 8.92777 3.38747 9.0173 3.22811 9.17667C3.06874 9.33603 2.97921 9.55218 2.97921 9.77756C2.97921 10.0029 3.06874 10.2191 3.22811 10.3785C3.38747 10.5378 3.60362 10.6274 3.829 10.6274H5.18017L0.251368 15.5477C0.171718 15.6267 0.108498 15.7206 0.065355 15.8242C0.0222121 15.9278 0 16.0388 0 16.151C0 16.2632 0.0222121 16.3743 0.065355 16.4778C0.108498 16.5814 0.171718 16.6754 0.251368 16.7544C0.330367 16.834 0.424355 16.8972 0.527911 16.9404C0.631466 16.9835 0.742539 17.0057 0.854722 17.0057C0.966904 17.0057 1.07798 16.9835 1.18153 16.9404C1.28509 16.8972 1.37908 16.834 1.45808 16.7544L6.37838 11.8256V13.1767C6.37838 13.4021 6.46792 13.6183 6.62728 13.7776C6.78665 13.937 7.0028 14.0265 7.22818 14.0265C7.45356 14.0265 7.66971 13.937 7.82907 13.7776C7.98844 13.6183 8.07797 13.4021 8.07797 13.1767V9.77756C8.07663 9.66651 8.05353 9.5568 8.00999 9.45464C7.92376 9.24699 7.75875 9.08198 7.5511 8.99575Z" fill="#465D61"/>
</svg>
