<svg width="32" height="33" viewBox="0 0 32 33" fill="none" xmlns="http://www.w3.org/2000/svg">
<path fill-rule="evenodd" clip-rule="evenodd" d="M27.7998 16.0579C27.7998 22.5763 22.5156 27.8605 15.9972 27.8605C9.47884 27.8605 4.19463 22.5763 4.19463 16.0579C4.19463 9.5395 9.47884 4.2553 15.9972 4.2553C22.5156 4.2553 27.7998 9.5395 27.7998 16.0579ZM29.9998 16.0579C29.9998 23.7913 23.7307 30.0605 15.9972 30.0605C8.26381 30.0605 1.99463 23.7913 1.99463 16.0579C1.99463 8.32448 8.26381 2.0553 15.9972 2.0553C23.7307 2.0553 29.9998 8.32448 29.9998 16.0579ZM14.1324 14.7393L19.3227 12.38L17.8575 18.729L12.6627 20.618L14.1324 14.7393ZM21.7396 11.6908C22.0377 10.399 20.7254 9.32583 19.5185 9.87445L13.1781 12.7564C12.5952 13.0214 12.1651 13.5377 12.0098 14.1589L10.2546 21.1796C9.94364 22.4234 11.1487 23.5095 12.3536 23.0714L18.6604 20.778C19.329 20.5348 19.829 19.9698 19.989 19.2766L21.7396 11.6908Z" fill="white"/>
</svg>
