<svg width="30" height="34" viewBox="0 0 30 34" fill="none" xmlns="http://www.w3.org/2000/svg">
<path d="M8.81667 19.1497C8.66045 19.3046 8.53646 19.4889 8.45185 19.692C8.36723 19.8951 8.32367 20.113 8.32367 20.333C8.32367 20.553 8.36723 20.7709 8.45185 20.974C8.53646 21.1771 8.66045 21.3614 8.81667 21.5163L13.8167 26.5163C13.9716 26.6726 14.1559 26.7965 14.359 26.8812C14.5621 26.9658 14.78 27.0093 15 27.0093C15.22 27.0093 15.4379 26.9658 15.641 26.8812C15.8441 26.7965 16.0284 26.6726 16.1833 26.5163L21.1833 21.5163C21.4972 21.2025 21.6735 20.7768 21.6735 20.333C21.6735 19.8892 21.4972 19.4635 21.1833 19.1497C20.8695 18.8358 20.4438 18.6595 20 18.6595C19.5562 18.6595 19.1305 18.8358 18.8167 19.1497L16.6667 21.3163V1.99967C16.6667 1.55765 16.4911 1.13372 16.1785 0.821163C15.8659 0.508602 15.442 0.333008 15 0.333008C14.558 0.333008 14.134 0.508602 13.8215 0.821163C13.5089 1.13372 13.3333 1.55765 13.3333 1.99967V21.3163L11.1833 19.1497C11.0284 18.9935 10.8441 18.8695 10.641 18.7849C10.4379 18.7002 10.22 18.6567 10 18.6567C9.77998 18.6567 9.56214 18.7002 9.35904 18.7849C9.15594 18.8695 8.9716 18.9935 8.81667 19.1497ZM25 11.9997H21.6667C21.2246 11.9997 20.8007 12.1753 20.4882 12.4878C20.1756 12.8004 20 13.2243 20 13.6663C20 14.1084 20.1756 14.5323 20.4882 14.8449C20.8007 15.1574 21.2246 15.333 21.6667 15.333H25C25.442 15.333 25.866 15.5086 26.1785 15.8212C26.4911 16.1337 26.6667 16.5576 26.6667 16.9997V28.6663C26.6667 29.1084 26.4911 29.5323 26.1785 29.8449C25.866 30.1574 25.442 30.333 25 30.333H5C4.55797 30.333 4.13405 30.1574 3.82149 29.8449C3.50893 29.5323 3.33333 29.1084 3.33333 28.6663V16.9997C3.33333 16.5576 3.50893 16.1337 3.82149 15.8212C4.13405 15.5086 4.55797 15.333 5 15.333H8.33333C8.77536 15.333 9.19928 15.1574 9.51184 14.8449C9.8244 14.5323 10 14.1084 10 13.6663C10 13.2243 9.8244 12.8004 9.51184 12.4878C9.19928 12.1753 8.77536 11.9997 8.33333 11.9997H5C3.67392 11.9997 2.40215 12.5265 1.46447 13.4641C0.526784 14.4018 0 15.6736 0 16.9997V28.6663C0 29.9924 0.526784 31.2642 1.46447 32.2019C2.40215 33.1396 3.67392 33.6663 5 33.6663H25C26.3261 33.6663 27.5979 33.1396 28.5355 32.2019C29.4732 31.2642 30 29.9924 30 28.6663V16.9997C30 15.6736 29.4732 14.4018 28.5355 13.4641C27.5979 12.5265 26.3261 11.9997 25 11.9997Z" fill="#0D1B1D"/>
</svg>
