<svg width="51" height="50" viewBox="0 0 51 50" fill="none" xmlns="http://www.w3.org/2000/svg">
<path d="M25.5 0C20.5555 0 15.722 1.46622 11.6108 4.21326C7.49953 6.9603 4.29521 10.8648 2.40302 15.4329C0.510832 20.0011 0.0157487 25.0277 0.980379 29.8773C1.94501 34.7268 4.32603 39.1814 7.82234 42.6777C11.3187 46.174 15.7732 48.555 20.6228 49.5196C25.4723 50.4843 30.4989 49.9892 35.0671 48.097C39.6353 46.2048 43.5397 43.0005 46.2867 38.8893C49.0338 34.778 50.5 29.9445 50.5 25C50.4926 18.3719 47.8564 12.0173 43.1695 7.33047C38.4827 2.64366 32.1282 0.00737145 25.5 0ZM25.5 45C21.5444 45 17.6776 43.827 14.3886 41.6294C11.0996 39.4318 8.53617 36.3082 7.02242 32.6537C5.50867 28.9991 5.1126 24.9778 5.88431 21.0982C6.65601 17.2186 8.56083 13.6549 11.3579 10.8579C14.1549 8.06081 17.7186 6.156 21.5982 5.38429C25.4778 4.61259 29.4992 5.00866 33.1537 6.52241C36.8082 8.03616 39.9318 10.5996 42.1294 13.8886C44.327 17.1776 45.5 21.0444 45.5 25C45.4939 30.3025 43.3849 35.386 39.6354 39.1354C35.886 42.8848 30.8025 44.9939 25.5 45ZM25.5 23.75C24.837 23.75 24.2011 24.0134 23.7322 24.4822C23.2634 24.9511 23 25.587 23 26.25V33.75C23 34.413 23.2634 35.0489 23.7322 35.5178C24.2011 35.9866 24.837 36.25 25.5 36.25C26.1631 36.25 26.7989 35.9866 27.2678 35.5178C27.7366 35.0489 28 34.413 28 33.75V26.25C28 25.587 27.7366 24.9511 27.2678 24.4822C26.7989 24.0134 26.1631 23.75 25.5 23.75ZM25.5 13.75C24.8819 13.75 24.2778 13.9333 23.7639 14.2767C23.25 14.62 22.8494 15.1081 22.6129 15.6791C22.3764 16.2501 22.3145 16.8785 22.4351 17.4847C22.5556 18.0908 22.8533 18.6477 23.2903 19.0847C23.7273 19.5217 24.2842 19.8194 24.8904 19.94C25.4965 20.0605 26.1249 19.9986 26.6959 19.7621C27.2669 19.5256 27.755 19.1251 28.0984 18.6112C28.4417 18.0973 28.625 17.4931 28.625 16.875C28.625 16.0462 28.2958 15.2513 27.7097 14.6653C27.1237 14.0792 26.3288 13.75 25.5 13.75Z" fill="#CC1F29"/>
</svg>
