<svg width="16" height="16" viewBox="0 0 16 16" fill="none" xmlns="http://www.w3.org/2000/svg">
<path d="M2.728 1.6H4C4.21217 1.6 4.41566 1.51571 4.56569 1.36569C4.71571 1.21566 4.8 1.01217 4.8 0.8C4.8 0.587827 4.71571 0.384344 4.56569 0.234315C4.41566 0.0842854 4.21217 0 4 0H0.8C0.695458 0.00126399 0.592178 0.0230072 0.496 0.0639999C0.30052 0.14518 0.14518 0.30052 0.0639999 0.496C0.0230072 0.592178 0.00126399 0.695458 0 0.8V4C0 4.21217 0.0842854 4.41566 0.234315 4.56569C0.384344 4.71571 0.587827 4.8 0.8 4.8C1.01217 4.8 1.21566 4.71571 1.36569 4.56569C1.51571 4.41566 1.6 4.21217 1.6 4V2.728L6.232 7.368C6.30637 7.44298 6.39485 7.5025 6.49234 7.54311C6.58983 7.58373 6.69439 7.60464 6.8 7.60464C6.90561 7.60464 7.01017 7.58373 7.10766 7.54311C7.20515 7.5025 7.29363 7.44298 7.368 7.368C7.44298 7.29363 7.5025 7.20515 7.54311 7.10766C7.58373 7.01017 7.60464 6.90561 7.60464 6.8C7.60464 6.69439 7.58373 6.58983 7.54311 6.49234C7.5025 6.39485 7.44298 6.30637 7.368 6.232L2.728 1.6ZM15.2 11.2C14.9878 11.2 14.7843 11.2843 14.6343 11.4343C14.4843 11.5843 14.4 11.7878 14.4 12V13.272L9.768 8.632C9.61736 8.48136 9.41304 8.39673 9.2 8.39673C8.98696 8.39673 8.78264 8.48136 8.632 8.632C8.48136 8.78264 8.39673 8.98696 8.39673 9.2C8.39673 9.41304 8.48136 9.61736 8.632 9.768L13.272 14.4H12C11.7878 14.4 11.5843 14.4843 11.4343 14.6343C11.2843 14.7843 11.2 14.9878 11.2 15.2C11.2 15.4122 11.2843 15.6157 11.4343 15.7657C11.5843 15.9157 11.7878 16 12 16H15.2C15.3045 15.9987 15.4078 15.977 15.504 15.936C15.6995 15.8548 15.8548 15.6995 15.936 15.504C15.977 15.4078 15.9987 15.3045 16 15.2V12C16 11.7878 15.9157 11.5843 15.7657 11.4343C15.6157 11.2843 15.4122 11.2 15.2 11.2Z" fill="#465D61"/>
</svg>
