<svg width="20" height="12" viewBox="0 0 20 12" fill="none" xmlns="http://www.w3.org/2000/svg">
<path d="M19.5452 11.0608C19.2639 11.342 18.8824 11.5 18.4847 11.5C18.0869 11.5 17.7055 11.342 17.4242 11.0608L9.9992 3.63582L2.5742 11.0608C2.29129 11.3341 1.91239 11.4852 1.51909 11.4818C1.1258 11.4784 0.749578 11.3207 0.471466 11.0425C0.193354 10.7644 0.0356026 10.3882 0.0321846 9.99492C0.0287666 9.60163 0.179958 9.22272 0.453196 8.93982L8.9387 0.454322C9.21999 0.173115 9.60145 0.0151415 9.9992 0.0151415C10.3969 0.0151415 10.7784 0.173115 11.0597 0.454322L19.5452 8.93982C19.8264 9.22111 19.9844 9.60257 19.9844 10.0003C19.9844 10.3981 19.8264 10.7795 19.5452 11.0608Z" fill="white"/>
</svg>
