<svg width="25" height="24" viewBox="0 0 25 24" fill="none" xmlns="http://www.w3.org/2000/svg">
<g clip-path="url(#clip0_1201_5879)">
<path fill-rule="evenodd" clip-rule="evenodd" d="M3.88923 18.5196C1.88096 16.2176 2.14392 12.7449 4.47656 10.7631L7.01074 8.60997C7.47727 8.2136 8.18108 8.26549 8.58273 8.72588C8.98438 9.18627 8.93179 9.88081 8.46526 10.2772L5.93108 12.4303C4.53149 13.6194 4.37372 15.703 5.57868 17.0842C6.78365 18.4653 8.89506 18.621 10.2946 17.4319L12.8288 15.2788C13.2954 14.8824 13.9992 14.9343 14.4008 15.3947C14.8025 15.8551 14.7499 16.5496 14.2833 16.946L11.7492 19.0991C9.41652 21.081 5.8975 20.8215 3.88923 18.5196Z" fill="#0D1B1D"/>
<path fill-rule="evenodd" clip-rule="evenodd" d="M10.2722 7.29063C9.87053 6.83025 9.92312 6.13571 10.3896 5.73933L12.9238 3.58624C15.2565 1.60437 18.7755 1.86383 20.7838 4.16576C22.792 6.46769 22.5291 9.9404 20.1964 11.9223L17.6623 14.0754C17.1957 14.4717 16.4919 14.4198 16.0903 13.9595C15.6886 13.4991 15.7412 12.8045 16.2077 12.4082L18.7419 10.2551C20.1415 9.06594 20.2993 6.98232 19.0943 5.60116C17.8893 4.22 15.7779 4.06432 14.3783 5.25344L11.8442 7.40654C11.3776 7.80291 10.6738 7.75102 10.2722 7.29063Z" fill="#0D1B1D"/>
<path fill-rule="evenodd" clip-rule="evenodd" d="M8.95773 14.2135C8.55607 13.7531 8.60867 13.0586 9.0752 12.6622L14.1436 8.35599C14.6101 7.95962 15.3139 8.01151 15.7155 8.4719C16.1172 8.93228 16.0646 9.62683 15.5981 10.0232L10.5297 14.3294C10.0632 14.7258 9.35938 14.6739 8.95773 14.2135Z" fill="#0D1B1D"/>
</g>
<defs>
<clipPath id="clip0_1201_5879">
<rect width="24.32" height="24" fill="white" transform="translate(0.25293)"/>
</clipPath>
</defs>
</svg>
