<svg width="22" height="22" viewBox="0 0 22 22" fill="none" xmlns="http://www.w3.org/2000/svg">
    <rect x="0.5" y="0.5" width="21" height="21" rx="10.5" fill="#00808B" />
    <path
        d="M15.6159 8.44441C15.4614 8.25885 15.268 8.10948 15.0494 8.00683C14.8308 7.90419 14.5923 7.85077 14.3508 7.85036H11.8426L12.1506 7.06379C12.2787 6.7194 12.3214 6.34906 12.275 5.98455C12.2285 5.62005 12.0943 5.27224 11.884 4.97098C11.6736 4.66973 11.3932 4.424 11.067 4.25489C10.7408 4.08577 10.3784 3.99832 10.0109 4.00002C9.90513 4.00025 9.80163 4.03098 9.71285 4.08854C9.62407 4.1461 9.55377 4.22805 9.51039 4.32455L7.94276 7.85036H6.65014C6.2125 7.85036 5.79278 8.02421 5.48332 8.33367C5.17385 8.64314 5 9.06286 5 9.5005V13.3508C5 13.7885 5.17385 14.2082 5.48332 14.5177C5.79278 14.8271 6.2125 15.001 6.65014 15.001H13.6523C14.0383 15.0008 14.412 14.8654 14.7085 14.6182C15.005 14.3709 15.2054 14.0276 15.2749 13.6479L15.9735 9.79753C16.0167 9.55957 16.007 9.31501 15.9452 9.08119C15.8835 8.84736 15.771 8.62997 15.6159 8.44441ZM7.75024 13.9009H6.65014C6.50426 13.9009 6.36435 13.8429 6.2612 13.7398C6.15805 13.6366 6.1001 13.4967 6.1001 13.3508V9.5005C6.1001 9.35462 6.15805 9.21471 6.2612 9.11156C6.36435 9.00841 6.50426 8.95045 6.65014 8.95045H7.75024V13.9009ZM14.9009 9.59951L14.2023 13.4498C14.1789 13.578 14.1107 13.6936 14.01 13.7762C13.9093 13.8588 13.7825 13.903 13.6523 13.9009H8.85033V8.51592L10.3465 5.14962C10.5005 5.19452 10.6435 5.27086 10.7665 5.37381C10.8895 5.47677 10.9899 5.60411 11.0612 5.7478C11.1325 5.89148 11.1733 6.0484 11.1809 6.20863C11.1885 6.36887 11.1629 6.52894 11.1055 6.67876L10.814 7.46533C10.7519 7.63158 10.7309 7.8104 10.7529 7.98651C10.7748 8.16263 10.8391 8.33082 10.9401 8.47672C11.0412 8.62262 11.1761 8.74191 11.3332 8.8244C11.4903 8.9069 11.6651 8.95014 11.8426 8.95045H14.3508C14.4316 8.95032 14.5115 8.968 14.5847 9.00222C14.6579 9.03645 14.7226 9.08638 14.7744 9.14847C14.8273 9.2097 14.8662 9.28188 14.888 9.35985C14.9099 9.43782 14.9143 9.51965 14.9009 9.59951Z"
        fill="white" />
    <rect x="0.5" y="0.5" width="21" height="21" rx="10.5" stroke="white" />
</svg>