<svg width="22" height="22" viewBox="0 0 22 22" fill="none" xmlns="http://www.w3.org/2000/svg">
<rect x="0.5" y="0.5" width="21" height="21" rx="10.5" fill="#DF3F3F"/>
<path d="M15.914 7.09853C15.2736 6.46472 14.4277 6.08069 13.529 6.01571C12.6304 5.95073 11.7381 6.20909 11.0131 6.74418C10.249 6.1758 9.29783 5.91807 8.35126 6.02289C7.40468 6.12771 6.53297 6.58729 5.91168 7.30909C5.29039 8.03088 4.96566 8.96128 5.00288 9.91291C5.0401 10.8645 5.43652 11.7667 6.11229 12.4378L9.71585 16.0714C10.0537 16.4088 10.5116 16.5983 10.9891 16.5983C11.4666 16.5983 11.9245 16.4088 12.2624 16.0714L15.8659 12.4378C16.2208 12.091 16.5037 11.6776 16.6983 11.2211C16.8929 10.7647 16.9954 10.2743 16.9998 9.77815C17.0043 9.28198 16.9107 8.78983 16.7243 8.32997C16.538 7.87011 16.2626 7.45161 15.914 7.09853ZM15.0671 11.5789L11.4636 15.1825C11.4077 15.2388 11.3413 15.2835 11.2681 15.314C11.1949 15.3445 11.1164 15.3602 11.0372 15.3602C10.9579 15.3602 10.8794 15.3445 10.8062 15.314C10.733 15.2835 10.6666 15.2388 10.6107 15.1825L7.00718 11.5789C6.53617 11.0975 6.27242 10.4507 6.27242 9.77717C6.27242 9.10363 6.53617 8.45686 7.00718 7.97539C7.48714 7.50152 8.13447 7.2358 8.80895 7.2358C9.48344 7.2358 10.1308 7.50152 10.6107 7.97539C10.6666 8.03168 10.733 8.07637 10.8062 8.10686C10.8794 8.13735 10.9579 8.15305 11.0372 8.15305C11.1164 8.15305 11.1949 8.13735 11.2681 8.10686C11.3413 8.07637 11.4077 8.03168 11.4636 7.97539C11.9565 7.58314 12.5766 7.38604 13.2056 7.4217C13.8345 7.45736 14.4283 7.72327 14.8738 8.16872C15.3193 8.61418 15.5852 9.20801 15.6208 9.83697C15.6565 10.4659 15.4594 11.086 15.0671 11.5789Z" fill="white"/>
<rect x="0.5" y="0.5" width="21" height="21" rx="10.5" stroke="white"/>
</svg>
