<svg width="22" height="22" viewBox="0 0 22 22" fill="none" xmlns="http://www.w3.org/2000/svg">
    <rect x="0.5" y="0.5" width="21" height="21" rx="10.5" fill="#FFA500" />
    <path
        d="M14.182 5.13841C13.6071 4.66561 12.9339 4.3271 12.2116 4.1476C11.4892 3.96809 10.7359 3.95211 10.0066 4.10081C9.03548 4.29697 8.14453 4.77717 7.44677 5.48049C6.74902 6.18381 6.27591 7.07854 6.08747 8.05117C5.94986 8.78044 5.97487 9.53109 6.1607 10.2496C6.34654 10.9681 6.68863 11.6367 7.16257 12.2078C7.60241 12.7041 7.85453 13.3389 7.87513 14.0017V15.8769C7.87513 16.3742 8.0727 16.8512 8.42436 17.2028C8.77602 17.5545 9.25298 17.7521 9.7503 17.7521H12.2505C12.7479 17.7521 13.2248 17.5545 13.5765 17.2028C13.9281 16.8512 14.1257 16.3742 14.1257 15.8769V14.1205C14.1467 13.3886 14.4155 12.6856 14.8883 12.1265C15.7165 11.1019 16.107 9.79184 15.9747 8.48098C15.8425 7.17011 15.1982 5.96441 14.182 5.12591V5.13841ZM12.8756 15.8769C12.8756 16.0427 12.8097 16.2016 12.6925 16.3189C12.5753 16.4361 12.4163 16.5019 12.2505 16.5019H9.7503C9.58453 16.5019 9.42554 16.4361 9.30832 16.3189C9.1911 16.2016 9.12525 16.0427 9.12525 15.8769V15.2518H12.8756V15.8769ZM13.9194 11.3515C13.2909 12.0969 12.9243 13.0279 12.8756 14.0017H11.6255V12.1265C11.6255 11.9608 11.5596 11.8018 11.4424 11.6846C11.3252 11.5673 11.1662 11.5015 11.0004 11.5015C10.8346 11.5015 10.6757 11.5673 10.5584 11.6846C10.4412 11.8018 10.3754 11.9608 10.3754 12.1265V14.0017H9.12525C9.10876 13.0442 8.75456 12.1233 8.12516 11.4015C7.7099 10.9039 7.43065 10.3073 7.31465 9.66966C7.19865 9.03206 7.24986 8.37528 7.46328 7.76335C7.67669 7.15143 8.04504 6.60526 8.5324 6.17808C9.01975 5.75091 9.60949 5.45731 10.2441 5.32593C10.7895 5.21363 11.3531 5.22419 11.8939 5.35685C12.4347 5.4895 12.9391 5.74092 13.3707 6.09284C13.8022 6.44477 14.1499 6.88837 14.3886 7.39144C14.6274 7.89451 14.7511 8.44443 14.7508 9.00126C14.7554 9.8575 14.4614 10.6886 13.9194 11.3515Z"
        fill="white" />
    <rect x="0.5" y="0.5" width="21" height="21" rx="10.5" stroke="white" />
</svg>