<svg width="20" height="19" viewBox="0 0 20 19" fill="none" xmlns="http://www.w3.org/2000/svg">
<path d="M10.0002 6.7487C9.81886 6.7487 9.64163 6.80246 9.49089 6.90318C9.34014 7.00391 9.22265 7.14707 9.15327 7.31457C9.08389 7.48207 9.06574 7.66638 9.10111 7.8442C9.13648 8.02201 9.22378 8.18535 9.35198 8.31355C9.48018 8.44174 9.64351 8.52905 9.82133 8.56442C9.99915 8.59979 10.1835 8.58163 10.351 8.51225C10.5185 8.44287 10.6616 8.32538 10.7623 8.17464C10.8631 8.02389 10.9168 7.84666 10.9168 7.66536C10.9168 7.42225 10.8203 7.18909 10.6483 7.01718C10.4764 6.84527 10.2433 6.7487 10.0002 6.7487ZM16.4168 0.332031H3.5835C2.85415 0.332031 2.15468 0.621763 1.63895 1.13749C1.12323 1.65321 0.833496 2.35269 0.833496 3.08203V12.2487C0.833496 12.978 1.12323 13.6775 1.63895 14.1932C2.15468 14.709 2.85415 14.9987 3.5835 14.9987H14.2077L17.5993 18.3995C17.685 18.4845 17.7866 18.5517 17.8982 18.5973C18.0099 18.6429 18.1295 18.6661 18.2502 18.6654C18.3704 18.6685 18.4897 18.6433 18.5985 18.592C18.7659 18.5233 18.9092 18.4065 19.0103 18.2564C19.1115 18.1063 19.1659 17.9297 19.1668 17.7487V3.08203C19.1668 2.35269 18.8771 1.65321 18.3614 1.13749C17.8456 0.621763 17.1462 0.332031 16.4168 0.332031ZM17.3335 15.5395L15.2343 13.4312C15.1487 13.3462 15.0471 13.279 14.9354 13.2334C14.8237 13.1878 14.7041 13.1647 14.5835 13.1654H3.5835C3.34038 13.1654 3.10722 13.0688 2.93531 12.8969C2.76341 12.725 2.66683 12.4918 2.66683 12.2487V3.08203C2.66683 2.83892 2.76341 2.60576 2.93531 2.43385C3.10722 2.26194 3.34038 2.16536 3.5835 2.16536H16.4168C16.6599 2.16536 16.8931 2.26194 17.065 2.43385C17.2369 2.60576 17.3335 2.83892 17.3335 3.08203V15.5395ZM6.3335 6.7487C6.1522 6.7487 5.97497 6.80246 5.82422 6.90318C5.67348 7.00391 5.55599 7.14707 5.48661 7.31457C5.41723 7.48207 5.39907 7.66638 5.43444 7.8442C5.46981 8.02201 5.55712 8.18535 5.68531 8.31355C5.81351 8.44174 5.97685 8.52905 6.15466 8.56442C6.33248 8.59979 6.51679 8.58163 6.68429 8.51225C6.85179 8.44287 6.99495 8.32538 7.09568 8.17464C7.1964 8.02389 7.25016 7.84666 7.25016 7.66536C7.25016 7.42225 7.15359 7.18909 6.98168 7.01718C6.80977 6.84527 6.57661 6.7487 6.3335 6.7487ZM13.6668 6.7487C13.4855 6.7487 13.3083 6.80246 13.1576 6.90318C13.0068 7.00391 12.8893 7.14707 12.8199 7.31457C12.7506 7.48207 12.7324 7.66638 12.7678 7.8442C12.8031 8.02201 12.8904 8.18535 13.0186 8.31355C13.1468 8.44174 13.3102 8.52905 13.488 8.56442C13.6658 8.59979 13.8501 8.58163 14.0176 8.51225C14.1851 8.44287 14.3283 8.32538 14.429 8.17464C14.5297 8.02389 14.5835 7.84666 14.5835 7.66536C14.5835 7.42225 14.4869 7.18909 14.315 7.01718C14.1431 6.84527 13.9099 6.7487 13.6668 6.7487Z" fill="#0D1B1D"/>
</svg>
