<svg width="41" height="35" viewBox="0 0 41 35" fill="none" xmlns="http://www.w3.org/2000/svg">
<path d="M34.8334 14.8128C34.3582 14.8128 33.9025 15.0016 33.5664 15.3376C33.2304 15.6736 33.0417 16.1293 33.0417 16.6045V29.1462C33.0417 29.6213 32.8529 30.0771 32.5169 30.4131C32.1809 30.7491 31.7252 30.9378 31.25 30.9378H6.16669C5.69151 30.9378 5.23579 30.7491 4.89979 30.4131C4.56378 30.0771 4.37502 29.6213 4.37502 29.1462V14.8128C4.37502 14.3376 4.56378 13.8819 4.89979 13.5459C5.23579 13.2099 5.69151 13.0212 6.16669 13.0212H9.75002C10.1407 13.0416 10.5274 12.9335 10.8509 12.7135C11.1744 12.4935 11.417 12.1737 11.5417 11.8028L12.5092 8.86449C12.6294 8.50863 12.8584 8.19954 13.1638 7.98092C13.4692 7.76229 13.8357 7.64519 14.2113 7.64616H24.0834C24.5585 7.64616 25.0142 7.45739 25.3503 7.12139C25.6863 6.78539 25.875 6.32967 25.875 5.85449C25.875 5.37931 25.6863 4.9236 25.3503 4.58759C25.0142 4.25159 24.5585 4.06283 24.0834 4.06283H14.1217C12.9957 4.06493 11.8988 4.42059 10.9859 5.07961C10.0729 5.73862 9.38991 6.66771 9.03335 7.73574L8.46002 9.52741H6.16669C4.74115 9.52741 3.374 10.0937 2.36599 11.1017C1.35798 12.1097 0.791687 13.4769 0.791687 14.9024V29.2357C0.791687 30.6613 1.35798 32.0284 2.36599 33.0364C3.374 34.0444 4.74115 34.6107 6.16669 34.6107H31.25C32.6756 34.6107 34.0427 34.0444 35.0507 33.0364C36.0587 32.0284 36.625 30.6613 36.625 29.2357V16.6941C36.6372 16.4514 36.5998 16.2087 36.5152 15.9809C36.4306 15.7531 36.3006 15.5448 36.133 15.3689C35.9654 15.1929 35.7638 15.0528 35.5403 14.9572C35.3169 14.8617 35.0764 14.8125 34.8334 14.8128ZM18.7084 13.0212C17.2909 13.0212 15.9053 13.4415 14.7268 14.229C13.5482 15.0164 12.6296 16.1357 12.0872 17.4453C11.5448 18.7548 11.4029 20.1958 11.6794 21.586C11.9559 22.9762 12.6385 24.2531 13.6408 25.2554C14.643 26.2577 15.92 26.9403 17.3102 27.2168C18.7004 27.4933 20.1414 27.3514 21.4509 26.809C22.7605 26.2665 23.8797 25.348 24.6672 24.1694C25.4547 22.9909 25.875 21.6053 25.875 20.1878C25.875 18.2871 25.12 16.4642 23.776 15.1202C22.4319 13.7762 20.6091 13.0212 18.7084 13.0212ZM18.7084 23.7712C17.9996 23.7712 17.3068 23.561 16.7176 23.1673C16.1283 22.7735 15.669 22.2139 15.3978 21.5591C15.1266 20.9043 15.0556 20.1838 15.1939 19.4888C15.3321 18.7937 15.6734 18.1552 16.1746 17.654C16.6757 17.1529 17.3142 16.8116 18.0093 16.6733C18.7044 16.5351 19.4249 16.606 20.0796 16.8773C20.7344 17.1485 21.294 17.6078 21.6878 18.197C22.0815 18.7863 22.2917 19.4791 22.2917 20.1878C22.2917 21.1382 21.9142 22.0496 21.2422 22.7216C20.5701 23.3936 19.6587 23.7712 18.7084 23.7712ZM38.4167 4.06283H36.625V2.27116C36.625 1.79598 36.4363 1.34026 36.1003 1.00426C35.7642 0.668256 35.3085 0.479492 34.8334 0.479492C34.3582 0.479492 33.9025 0.668256 33.5664 1.00426C33.2304 1.34026 33.0417 1.79598 33.0417 2.27116V4.06283H31.25C30.7748 4.06283 30.3191 4.25159 29.9831 4.58759C29.6471 4.9236 29.4584 5.37931 29.4584 5.85449C29.4584 6.32967 29.6471 6.78539 29.9831 7.12139C30.3191 7.45739 30.7748 7.64616 31.25 7.64616H33.0417V9.43783C33.0417 9.913 33.2304 10.3687 33.5664 10.7047C33.9025 11.0407 34.3582 11.2295 34.8334 11.2295C35.3085 11.2295 35.7642 11.0407 36.1003 10.7047C36.4363 10.3687 36.625 9.913 36.625 9.43783V7.64616H38.4167C38.8919 7.64616 39.3476 7.45739 39.6836 7.12139C40.0196 6.78539 40.2084 6.32967 40.2084 5.85449C40.2084 5.37931 40.0196 4.9236 39.6836 4.58759C39.3476 4.25159 38.8919 4.06283 38.4167 4.06283Z" fill="#EEEEEE"/>
</svg>
