<svg width="28" height="17" viewBox="0 0 28 17" fill="none" xmlns="http://www.w3.org/2000/svg">
<path d="M4.23022 8.32C3.59025 7.59933 3.17221 6.70905 3.02641 5.75634C2.88062 4.80362 3.01329 3.82907 3.40845 2.95C3.80361 2.07093 4.44442 1.3248 5.25374 0.801423C6.06307 0.27805 7.00641 -0.0002576 7.97021 1.78911e-07C8.23543 1.78911e-07 8.48979 0.105357 8.67732 0.292893C8.86486 0.48043 8.97021 0.734784 8.97021 1C8.97021 1.26522 8.86486 1.51957 8.67732 1.70711C8.48979 1.89464 8.23543 2 7.97021 2C7.17457 2 6.4115 2.31607 5.84889 2.87868C5.28628 3.44129 4.97021 4.20435 4.97021 5C4.97163 5.52524 5.11092 6.0409 5.37415 6.49542C5.63739 6.94994 6.01534 7.32738 6.47021 7.59C6.61848 7.67552 6.74231 7.79766 6.82985 7.94474C6.9174 8.09182 6.96573 8.2589 6.97021 8.43C6.9744 8.59976 6.93528 8.7678 6.85655 8.91826C6.77782 9.06872 6.66207 9.19665 6.52021 9.29L6.13021 9.55L6.00022 9.62C4.79482 10.1917 3.7779 11.096 3.06924 12.2263C2.36057 13.3566 1.98967 14.6659 2.00022 16C2.00022 16.2652 1.89486 16.5196 1.70732 16.7071C1.51978 16.8946 1.26543 17 1.00022 17C0.734999 17 0.480644 16.8946 0.293108 16.7071C0.105572 16.5196 0.00021553 16.2652 0.00021553 16C-0.00795898 14.4654 0.376391 12.9543 1.11675 11.6101C1.8571 10.2659 2.92887 9.13331 4.23022 8.32Z" fill="#0D1B1D"/>
<path d="M17.2702 8.72C17.8038 8.25813 18.2318 7.68688 18.5251 7.04502C18.8184 6.40316 18.9702 5.70571 18.9702 5C18.9702 3.67392 18.4434 2.40215 17.5057 1.46447C16.5681 0.526784 15.2963 1.78911e-07 13.9702 1.78911e-07C12.6441 1.78911e-07 11.3724 0.526784 10.4347 1.46447C9.497 2.40215 8.97021 3.67392 8.97021 5C8.97021 5.70571 9.12202 6.40316 9.41534 7.04502C9.70866 7.68688 10.1366 8.25813 10.6702 8.72C9.27035 9.35388 8.08268 10.3775 7.2492 11.6685C6.41571 12.9596 5.97169 14.4633 5.97021 16C5.97021 16.2652 6.07557 16.5196 6.26311 16.7071C6.45064 16.8946 6.705 17 6.97021 17C7.23543 17 7.48979 16.8946 7.67732 16.7071C7.86486 16.5196 7.97021 16.2652 7.97021 16C7.97021 14.4087 8.60236 12.8826 9.72757 11.7574C10.8528 10.6321 12.3789 10 13.9702 10C15.5615 10 17.0876 10.6321 18.2129 11.7574C19.3381 12.8826 19.9702 14.4087 19.9702 16C19.9702 16.2652 20.0756 16.5196 20.2631 16.7071C20.4506 16.8946 20.705 17 20.9702 17C21.2354 17 21.4898 16.8946 21.6773 16.7071C21.8649 16.5196 21.9702 16.2652 21.9702 16C21.9687 14.4633 21.5247 12.9596 20.6912 11.6685C19.8577 10.3775 18.6701 9.35388 17.2702 8.72ZM13.9702 8C13.3769 8 12.7969 7.82405 12.3035 7.49441C11.8102 7.16476 11.4256 6.69623 11.1986 6.14805C10.9715 5.59987 10.9121 4.99667 11.0279 4.41473C11.1436 3.83279 11.4293 3.29824 11.8489 2.87868C12.2685 2.45912 12.803 2.1734 13.3849 2.05764C13.9669 1.94189 14.5701 2.0013 15.1183 2.22836C15.6664 2.45542 16.135 2.83994 16.4646 3.33329C16.7943 3.82664 16.9702 4.40666 16.9702 5C16.9702 5.79565 16.6541 6.55871 16.0915 7.12132C15.5289 7.68393 14.7659 8 13.9702 8ZM23.7102 8.32C24.3502 7.59933 24.7682 6.70905 24.914 5.75634C25.0598 4.80362 24.9271 3.82907 24.532 2.95C24.1368 2.07093 23.496 1.3248 22.6867 0.801423C21.8774 0.27805 20.934 -0.0002576 19.9702 1.78911e-07C19.705 1.78911e-07 19.4506 0.105357 19.2631 0.292893C19.0756 0.48043 18.9702 0.734784 18.9702 1C18.9702 1.26522 19.0756 1.51957 19.2631 1.70711C19.4506 1.89464 19.705 2 19.9702 2C20.7659 2 21.5289 2.31607 22.0915 2.87868C22.6541 3.44129 22.9702 4.20435 22.9702 5C22.9688 5.52524 22.8295 6.0409 22.5663 6.49542C22.303 6.94994 21.9251 7.32738 21.4702 7.59C21.322 7.67552 21.1981 7.79766 21.1106 7.94474C21.023 8.09182 20.9747 8.2589 20.9702 8.43C20.966 8.59976 21.0051 8.7678 21.0839 8.91826C21.1626 9.06872 21.2784 9.19665 21.4202 9.29L21.8102 9.55L21.9402 9.62C23.1456 10.1917 24.1625 11.096 24.8712 12.2263C25.5799 13.3566 25.9508 14.6659 25.9402 16C25.9402 16.2652 26.0456 16.5196 26.2331 16.7071C26.4206 16.8946 26.675 17 26.9402 17C27.2054 17 27.4598 16.8946 27.6473 16.7071C27.8349 16.5196 27.9402 16.2652 27.9402 16C27.9484 14.4654 27.564 12.9543 26.8237 11.6101C26.0833 10.2659 25.0116 9.13331 23.7102 8.32Z" fill="#0D1B1D"/>
</svg>
