<svg width="32" height="24" viewBox="0 0 32 24" fill="none" xmlns="http://www.w3.org/2000/svg">
<!-- <path d="M31 9H30V8C30 7.73478 29.8946 7.48043 29.7071 7.29289C29.5196 7.10536 29.2652 7 29 7C28.7348 7 28.4804 7.10536 28.2929 7.29289C28.1054 7.48043 28 7.73478 28 8V9H27C26.7348 9 26.4804 9.10536 26.2929 9.29289C26.1054 9.48043 26 9.73478 26 10C26 10.2652 26.1054 10.5196 26.2929 10.7071C26.4804 10.8946 26.7348 11 27 11H28V12C28 12.2652 28.1054 12.5196 28.2929 12.7071C28.4804 12.8946 28.7348 13 29 13C29.2652 13 29.5196 12.8946 29.7071 12.7071C29.8946 12.5196 30 12.2652 30 12V11H31C31.2652 11 31.5196 10.8946 31.7071 10.7071C31.8946 10.5196 32 10.2652 32 10C32 9.73478 31.8946 9.48043 31.7071 9.29289C31.5196 9.10536 31.2652 9 31 9Z" fill="currentColor"/> -->
<path d="M17.3 12.22C17.8336 11.7581 18.2616 11.1869 18.5549 10.545C18.8482 9.90316 19 9.20571 19 8.5C19 7.17392 18.4732 5.90215 17.5355 4.96447C16.5979 4.02678 15.3261 3.5 14 3.5C12.6739 3.5 11.4021 4.02678 10.4645 4.96447C9.52678 5.90215 9 7.17392 9 8.5C8.99999 9.20571 9.1518 9.90316 9.44513 10.545C9.73845 11.1869 10.1664 11.7581 10.7 12.22C9.30014 12.8539 8.11247 13.8775 7.27898 15.1685C6.4455 16.4596 6.00147 17.9633 6 19.5C6 19.7652 6.10536 20.0196 6.29289 20.2071C6.48043 20.3946 6.73478 20.5 7 20.5C7.26522 20.5 7.51957 20.3946 7.70711 20.2071C7.89464 20.0196 8 19.7652 8 19.5C8 17.9087 8.63214 16.3826 9.75736 15.2574C10.8826 14.1321 12.4087 13.5 14 13.5C15.5913 13.5 17.1174 14.1321 18.2426 15.2574C19.3679 16.3826 20 17.9087 20 19.5C20 19.7652 20.1054 20.0196 20.2929 20.2071C20.4804 20.3946 20.7348 20.5 21 20.5C21.2652 20.5 21.5196 20.3946 21.7071 20.2071C21.8946 20.0196 22 19.7652 22 19.5C21.9985 17.9633 21.5545 16.4596 20.721 15.1685C19.8875 13.8775 18.6999 12.8539 17.3 12.22ZM14 11.5C13.4067 11.5 12.8266 11.3241 12.3333 10.9944C11.8399 10.6648 11.4554 10.1962 11.2284 9.64805C11.0013 9.09987 10.9419 8.49667 11.0576 7.91473C11.1734 7.33279 11.4591 6.79824 11.8787 6.37868C12.2982 5.95912 12.8328 5.6734 13.4147 5.55764C13.9967 5.44189 14.5999 5.5013 15.1481 5.72836C15.6962 5.95542 16.1648 6.33994 16.4944 6.83329C16.8241 7.32664 17 7.90666 17 8.5C17 9.29565 16.6839 10.0587 16.1213 10.6213C15.5587 11.1839 14.7956 11.5 14 11.5ZM23.74 11.82C24.38 11.0993 24.798 10.2091 24.9438 9.25634C25.0896 8.30362 24.9569 7.32907 24.5618 6.45C24.1666 5.57093 23.5258 4.8248 22.7165 4.30142C21.9071 3.77805 20.9638 3.49974 20 3.5C19.7348 3.5 19.4804 3.60536 19.2929 3.79289C19.1054 3.98043 19 4.23478 19 4.5C19 4.76522 19.1054 5.01957 19.2929 5.20711C19.4804 5.39464 19.7348 5.5 20 5.5C20.7956 5.5 21.5587 5.81607 22.1213 6.37868C22.6839 6.94129 23 7.70435 23 8.5C22.9986 9.02524 22.8593 9.5409 22.5961 9.99542C22.3328 10.4499 21.9549 10.8274 21.5 11.09C21.3517 11.1755 21.2279 11.2977 21.1404 11.4447C21.0528 11.5918 21.0045 11.7589 21 11.93C20.9958 12.0998 21.0349 12.2678 21.1137 12.4183C21.1924 12.5687 21.3081 12.6967 21.45 12.79L21.84 13.05L21.97 13.12C23.1754 13.6917 24.1923 14.596 24.901 15.7263C25.6096 16.8566 25.9805 18.1659 25.97 19.5C25.97 19.7652 26.0754 20.0196 26.2629 20.2071C26.4504 20.3946 26.7048 20.5 26.97 20.5C27.2352 20.5 27.4896 20.3946 27.6771 20.2071C27.8646 20.0196 27.97 19.7652 27.97 19.5C27.9782 17.9654 27.5938 16.4543 26.8535 15.1101C26.1131 13.7659 25.0413 12.6333 23.74 11.82Z" fill="currentColor"/>
<path d="M4.2307 11.82C3.59074 11.0993 3.17269 10.2091 3.0269 9.25634C2.88111 8.30362 3.01378 7.32907 3.40894 6.45C3.8041 5.57093 4.44491 4.8248 5.25423 4.30142C6.06356 3.77805 7.0069 3.49974 7.9707 3.5C8.23592 3.5 8.49027 3.60536 8.67781 3.79289C8.86535 3.98043 8.9707 4.23478 8.9707 4.5C8.9707 4.76522 8.86535 5.01957 8.67781 5.20711C8.49027 5.39464 8.23592 5.5 7.9707 5.5C7.17505 5.5 6.41199 5.81607 5.84938 6.37868C5.28677 6.94129 4.9707 7.70435 4.9707 8.5C4.97212 9.02524 5.11141 9.5409 5.37464 9.99542C5.63788 10.4499 6.01583 10.8274 6.4707 11.09C6.61897 11.1755 6.74279 11.2977 6.83034 11.4447C6.91788 11.5918 6.96621 11.7589 6.9707 11.93C6.97489 12.0998 6.93577 12.2678 6.85704 12.4183C6.77831 12.5687 6.66256 12.6967 6.5207 12.79L6.1307 13.05L6.0007 13.12C4.79531 13.6917 3.77839 14.596 3.06973 15.7263C2.36106 16.8566 1.99016 18.1659 2.0007 19.5C2.0007 19.7652 1.89535 20.0196 1.70781 20.2071C1.52027 20.3946 1.26592 20.5 1.0007 20.5C0.735487 20.5 0.481133 20.3946 0.293596 20.2071C0.10606 20.0196 0.000703812 19.7652 0.000703812 19.5C-0.00747108 17.9654 0.37688 16.4543 1.11724 15.1101C1.85759 13.7659 2.92936 12.6333 4.2307 11.82Z" fill="currentColor"/>
</svg>
