<svg width="32" height="32" viewBox="0 0 32 32" fill="none" xmlns="http://www.w3.org/2000/svg">
<path d="M26.8797 6.66667C25.458 5.25961 23.5802 4.40703 21.5851 4.26278C19.59 4.11852 17.6091 4.6921 15.9997 5.88C14.3033 4.61818 12.1917 4.04602 10.0903 4.27872C7.98885 4.51142 6.05364 5.5317 4.67435 7.13411C3.29506 8.73652 2.57415 10.802 2.65678 12.9147C2.73942 15.0273 3.61947 17.0302 5.11972 18.52L13.1197 26.5867C13.8697 27.3357 14.8864 27.7565 15.9464 27.7565C17.0064 27.7565 18.023 27.3357 18.773 26.5867L26.773 18.52C27.561 17.7502 28.189 16.8323 28.621 15.819C29.053 14.8057 29.2805 13.717 29.2904 12.6155C29.3003 11.514 29.0924 10.4214 28.6787 9.40051C28.265 8.3796 27.6536 7.45052 26.8797 6.66667ZM24.9997 16.6133L16.9997 24.6133C16.8758 24.7383 16.7283 24.8375 16.5658 24.9052C16.4033 24.9729 16.2291 25.0077 16.053 25.0077C15.877 25.0077 15.7028 24.9729 15.5403 24.9052C15.3778 24.8375 15.2303 24.7383 15.1064 24.6133L7.10638 16.6133C6.06073 15.5445 5.4752 14.1086 5.4752 12.6133C5.4752 11.118 6.06073 9.68221 7.10638 8.61333C8.17192 7.56132 9.60901 6.97143 11.1064 6.97143C12.6038 6.97143 14.0408 7.56132 15.1064 8.61333C15.2303 8.73831 15.3778 8.8375 15.5403 8.90519C15.7028 8.97288 15.877 9.00773 16.053 9.00773C16.2291 9.00773 16.4033 8.97288 16.5658 8.90519C16.7283 8.8375 16.8758 8.73831 16.9997 8.61333C18.0941 7.74252 19.4707 7.30497 20.867 7.38412C22.2633 7.46328 23.5816 8.05361 24.5705 9.04254C25.5594 10.0315 26.1498 11.3498 26.2289 12.7461C26.3081 14.1424 25.8705 15.519 24.9997 16.6133Z" fill="#DF3F3F"/>
</svg>
