<svg width="22" height="21" viewBox="0 0 22 21" fill="none" xmlns="http://www.w3.org/2000/svg">
<path d="M9.94018 4.57994C10.2909 4.52617 10.6453 4.49943 11.0002 4.49994C14.1802 4.49994 17.1702 6.78994 18.9102 10.4999C18.6441 11.0645 18.3435 11.6122 18.0102 12.1399C17.9044 12.3038 17.8487 12.4949 17.8502 12.6899C17.8524 12.9082 17.926 13.1197 18.0596 13.2922C18.1933 13.4647 18.3798 13.5888 18.5905 13.6455C18.8013 13.7021 19.0248 13.6883 19.227 13.606C19.4291 13.5238 19.5988 13.3776 19.7102 13.1899C20.1761 12.4579 20.5808 11.6886 20.9202 10.8899C20.9738 10.7652 21.0015 10.6308 21.0015 10.4949C21.0015 10.3591 20.9738 10.2247 20.9202 10.0999C18.9002 5.40994 15.1002 2.49994 11.0002 2.49994C10.5309 2.49758 10.0623 2.53774 9.60019 2.61994C9.46886 2.64227 9.34322 2.69024 9.23044 2.76112C9.11766 2.832 9.01994 2.9244 8.94287 3.03304C8.8658 3.14169 8.81088 3.26445 8.78125 3.39432C8.75162 3.52419 8.74786 3.65862 8.77018 3.78994C8.79251 3.92126 8.84048 4.0469 8.91136 4.15968C8.98224 4.27247 9.07464 4.37018 9.18329 4.44726C9.29193 4.52433 9.41469 4.57925 9.54456 4.60888C9.67443 4.63851 9.80886 4.64227 9.94018 4.61994V4.57994ZM2.71019 0.789941C2.61695 0.696703 2.50626 0.622742 2.38443 0.572281C2.26261 0.521821 2.13204 0.49585 2.00019 0.49585C1.86833 0.49585 1.73776 0.521821 1.61594 0.572281C1.49411 0.622742 1.38342 0.696703 1.29019 0.789941C1.10188 0.978245 0.996094 1.23364 0.996094 1.49994C0.996094 1.76624 1.10188 2.02164 1.29019 2.20994L4.39019 5.29994C2.97576 6.66147 1.85004 8.29393 1.08019 10.0999C1.02512 10.2261 0.996701 10.3623 0.996701 10.4999C0.996701 10.6376 1.02512 10.7738 1.08019 10.8999C3.10019 15.5899 6.90019 18.4999 11.0002 18.4999C12.7973 18.4875 14.552 17.9524 16.0502 16.9599L19.2902 20.2099C19.3831 20.3037 19.4937 20.3781 19.6156 20.4288C19.7375 20.4796 19.8682 20.5057 20.0002 20.5057C20.1322 20.5057 20.2629 20.4796 20.3848 20.4288C20.5066 20.3781 20.6172 20.3037 20.7102 20.2099C20.8039 20.117 20.8783 20.0064 20.9291 19.8845C20.9798 19.7627 21.006 19.632 21.006 19.4999C21.006 19.3679 20.9798 19.2372 20.9291 19.1154C20.8783 18.9935 20.8039 18.8829 20.7102 18.7899L2.71019 0.789941ZM9.07018 9.97994L11.5202 12.4299C11.3512 12.4784 11.176 12.502 11.0002 12.4999C10.4698 12.4999 9.96104 12.2892 9.58597 11.9142C9.2109 11.5391 9.00019 11.0304 9.00019 10.4999C8.99814 10.3241 9.02172 10.149 9.07018 9.97994ZM11.0002 16.4999C7.82018 16.4999 4.83019 14.2099 3.10019 10.4999C3.74627 9.07369 4.66326 7.78652 5.80019 6.70994L7.57019 8.49994C7.15443 9.25874 6.99592 10.1319 7.11844 10.9884C7.24096 11.8449 7.6379 12.6386 8.24971 13.2504C8.86152 13.8622 9.65522 14.2592 10.5117 14.3817C11.3682 14.5042 12.2414 14.3457 13.0002 13.9299L14.5902 15.4999C13.5013 16.1408 12.2636 16.4856 11.0002 16.4999Z" fill="white"/>
</svg>
