<svg width="24" height="28" viewBox="0 0 24 28" fill="none" xmlns="http://www.w3.org/2000/svg">
<path d="M22.6668 8.72722L14.6668 1.71389C13.9334 1.05795 12.984 0.695313 12.0001 0.695312C11.0162 0.695313 10.0668 1.05795 9.33346 1.71389L1.33346 8.72722C0.909951 9.10599 0.571993 9.57063 0.342089 10.0902C0.112185 10.6098 -0.00439008 11.1724 0.000126392 11.7406V23.3939C0.000126392 24.4548 0.421554 25.4722 1.1717 26.2223C1.92184 26.9725 2.93926 27.3939 4.00013 27.3939H20.0001C21.061 27.3939 22.0784 26.9725 22.8286 26.2223C23.5787 25.4722 24.0001 24.4548 24.0001 23.3939V11.7272C24.0027 11.1613 23.8853 10.6013 23.6554 10.0841C23.4256 9.56698 23.0886 9.1045 22.6668 8.72722ZM14.6668 24.7272H9.33346V18.0606C9.33346 17.7069 9.47394 17.3678 9.72398 17.1177C9.97403 16.8677 10.3132 16.7272 10.6668 16.7272H13.3335C13.6871 16.7272 14.0262 16.8677 14.2763 17.1177C14.5263 17.3678 14.6668 17.7069 14.6668 18.0606V24.7272ZM21.3335 23.3939C21.3335 23.7475 21.193 24.0866 20.9429 24.3367C20.6929 24.5867 20.3537 24.7272 20.0001 24.7272H17.3335V18.0606C17.3335 16.9997 16.912 15.9823 16.1619 15.2321C15.4117 14.482 14.3943 14.0606 13.3335 14.0606H10.6668C9.60593 14.0606 8.58851 14.482 7.83837 15.2321C7.08822 15.9823 6.66679 16.9997 6.66679 18.0606V24.7272H4.00013C3.6465 24.7272 3.30737 24.5867 3.05732 24.3367C2.80727 24.0866 2.66679 23.7475 2.66679 23.3939V11.7272C2.66703 11.5379 2.70758 11.3508 2.78575 11.1784C2.86391 11.006 2.9779 10.8522 3.12013 10.7272L11.1201 3.72722C11.3634 3.51346 11.6762 3.39558 12.0001 3.39558C12.324 3.39558 12.6368 3.51346 12.8801 3.72722L20.8801 10.7272C21.0223 10.8522 21.1363 11.006 21.2145 11.1784C21.2927 11.3508 21.3332 11.5379 21.3335 11.7272V23.3939Z" fill="white"/>
</svg>
