<svg width="18" height="14" viewBox="0 0 18 14" fill="none" xmlns="http://www.w3.org/2000/svg">
<path d="M15.3 0H2.7C1.98392 0 1.29716 0.276562 0.790812 0.768845C0.284464 1.26113 0 1.92881 0 2.625V11.375C0 12.0712 0.284464 12.7389 0.790812 13.2312C1.29716 13.7234 1.98392 14 2.7 14H15.3C16.0161 14 16.7028 13.7234 17.2092 13.2312C17.7155 12.7389 18 12.0712 18 11.375V2.625C18 1.92881 17.7155 1.26113 17.2092 0.768845C16.7028 0.276562 16.0161 0 15.3 0ZM2.7 12.25C2.46131 12.25 2.23239 12.1578 2.0636 11.9937C1.89482 11.8296 1.8 11.6071 1.8 11.375V9.2575L4.77 6.37875C4.93824 6.21843 5.16442 6.12863 5.4 6.12863C5.63558 6.12863 5.86176 6.21843 6.03 6.37875L12.069 12.25H2.7ZM16.2 11.375C16.2 11.6071 16.1052 11.8296 15.9364 11.9937C15.7676 12.1578 15.5387 12.25 15.3 12.25H14.607L11.178 8.89875L11.97 8.12875C12.1382 7.96843 12.3644 7.87863 12.6 7.87863C12.8356 7.87863 13.0618 7.96843 13.23 8.12875L16.2 11.0075V11.375ZM16.2 8.54L14.508 6.90375C13.9951 6.42463 13.3113 6.15705 12.6 6.15705C11.8887 6.15705 11.2049 6.42463 10.692 6.90375L9.9 7.67375L7.308 5.15375C6.79505 4.67463 6.11132 4.40705 5.4 4.40705C4.68868 4.40705 4.00495 4.67463 3.492 5.15375L1.8 6.79V2.625C1.8 2.39294 1.89482 2.17038 2.0636 2.00628C2.23239 1.84219 2.46131 1.75 2.7 1.75H15.3C15.5387 1.75 15.7676 1.84219 15.9364 2.00628C16.1052 2.17038 16.2 2.39294 16.2 2.625V8.54Z" fill="#0D1B1D"/>
</svg>
