<svg width="32" height="32" viewBox="0 0 32 32" fill="none" xmlns="http://www.w3.org/2000/svg">
<path d="M22.7863 3.75999C21.56 2.75144 20.124 2.02936 18.5831 1.64645C17.0423 1.26353 15.4353 1.22944 13.8796 1.54666C11.8081 1.96509 9.90758 2.98942 8.41917 4.4897C6.93077 5.98997 5.92156 7.89857 5.5196 9.97332C5.22606 11.529 5.2794 13.1302 5.67581 14.6628C6.07223 16.1955 6.80195 17.6218 7.81293 18.84C8.75118 19.8987 9.28898 21.2527 9.33293 22.6667V26.6667C9.33293 27.7275 9.75436 28.7449 10.5045 29.4951C11.2546 30.2452 12.2721 30.6667 13.3329 30.6667H18.6663C19.7271 30.6667 20.7445 30.2452 21.4947 29.4951C22.2448 28.7449 22.6663 27.7275 22.6663 26.6667V22.92C22.711 21.3589 23.2845 19.8592 24.2929 18.6667C26.0598 16.481 26.8926 13.6864 26.6105 10.8902C26.3284 8.0939 24.9541 5.52197 22.7863 3.73332V3.75999ZM19.9996 26.6667C19.9996 27.0203 19.8591 27.3594 19.6091 27.6095C19.359 27.8595 19.0199 28 18.6663 28H13.3329C12.9793 28 12.6402 27.8595 12.3901 27.6095C12.1401 27.3594 11.9996 27.0203 11.9996 26.6667V25.3333H19.9996V26.6667ZM22.2263 17.0133C20.8856 18.6035 20.1034 20.5894 19.9996 22.6667H17.3329V18.6667C17.3329 18.313 17.1925 17.9739 16.9424 17.7238C16.6924 17.4738 16.3532 17.3333 15.9996 17.3333C15.646 17.3333 15.3068 17.4738 15.0568 17.7238C14.8067 17.9739 14.6663 18.313 14.6663 18.6667V22.6667H11.9996C11.9644 20.6241 11.2089 18.6597 9.86626 17.12C8.98045 16.0587 8.38479 14.7859 8.13734 13.4258C7.8899 12.0657 7.99913 10.6647 8.45438 9.35936C8.90963 8.05405 9.69536 6.88898 10.735 5.97776C11.7746 5.06653 13.0325 4.44026 14.3863 4.15999C15.5497 3.92045 16.7518 3.94298 17.9054 4.22595C19.059 4.50892 20.1352 5.04522 21.0557 5.79593C21.9762 6.54663 22.718 7.49289 23.2272 8.56601C23.7364 9.63914 24.0002 10.8122 23.9996 12C24.0095 13.8265 23.3824 15.5993 22.2263 17.0133Z" fill="#FFBB00"/>
</svg>
