<svg width="22" height="21" viewBox="0 0 22 21" fill="none" xmlns="http://www.w3.org/2000/svg">
<path d="M20.1701 0.561098C19.4533 0.437631 18.7274 0.374078 18.0001 0.371098C15.5184 0.369064 13.0886 1.08067 11.0001 2.4211C8.90623 1.09827 6.47674 0.404129 4.00008 0.421098C3.27273 0.424078 2.54689 0.487631 1.83008 0.611098C1.59529 0.651577 1.38267 0.774557 1.2305 0.957891C1.07833 1.14123 0.996621 1.37287 1.00008 1.6111V13.6111C0.997943 13.758 1.02821 13.9036 1.08873 14.0375C1.14926 14.1714 1.23855 14.2904 1.35026 14.3858C1.46197 14.4813 1.59334 14.551 1.73504 14.5899C1.87674 14.6289 2.02528 14.6361 2.17008 14.6111C3.6031 14.363 5.07129 14.4041 6.48815 14.7322C7.90501 15.0602 9.24191 15.6685 10.4201 16.5211L10.5401 16.5911H10.6501C10.761 16.6373 10.8799 16.6611 11.0001 16.6611C11.1202 16.6611 11.2392 16.6373 11.3501 16.5911H11.4601L11.5801 16.5211C12.75 15.6494 14.0831 15.0214 15.5002 14.6745C16.9174 14.3275 18.3897 14.2685 19.8301 14.5011C19.9749 14.5261 20.1234 14.5189 20.2651 14.4799C20.4068 14.441 20.5382 14.3713 20.6499 14.2758C20.7616 14.1804 20.8509 14.0614 20.9114 13.9275C20.972 13.7936 21.0022 13.648 21.0001 13.5011V1.5011C20.9897 1.27325 20.9017 1.05581 20.7507 0.884836C20.5998 0.713863 20.3949 0.599635 20.1701 0.561098ZM10.0001 13.8511C8.14997 12.8778 6.0906 12.3698 4.00008 12.3711C3.67008 12.3711 3.34008 12.3711 3.00008 12.3711V2.3711C3.33314 2.3519 3.66703 2.3519 4.00008 2.3711C6.13347 2.36874 8.2203 2.99479 10.0001 4.1711V13.8511ZM19.0001 12.4111C18.6601 12.4111 18.3301 12.4111 18.0001 12.4111C15.9096 12.4098 13.8502 12.9178 12.0001 13.8911V4.1711C13.7799 2.99479 15.8667 2.36874 18.0001 2.3711C18.3331 2.3519 18.667 2.3519 19.0001 2.3711V12.4111ZM20.1701 16.5611C19.4533 16.4376 18.7274 16.3741 18.0001 16.3711C15.5184 16.3691 13.0886 17.0807 11.0001 18.4211C8.9116 17.0807 6.48172 16.3691 4.00008 16.3711C3.27273 16.3741 2.54689 16.4376 1.83008 16.5611C1.69991 16.5818 1.57511 16.6279 1.46285 16.697C1.35059 16.7661 1.25309 16.8566 1.17595 16.9635C1.09882 17.0704 1.04357 17.1914 1.01339 17.3197C0.983207 17.448 0.978686 17.581 1.00008 17.7111C1.0509 17.9708 1.20257 18.1997 1.42188 18.3478C1.64118 18.4959 1.91022 18.551 2.17008 18.5011C3.6031 18.253 5.07129 18.2942 6.48815 18.6222C7.90501 18.9502 9.24191 19.5585 10.4201 20.4111C10.5894 20.5317 10.7922 20.5965 11.0001 20.5965C11.208 20.5965 11.4107 20.5317 11.5801 20.4111C12.7583 19.5585 14.0952 18.9502 15.512 18.6222C16.9289 18.2942 18.3971 18.253 19.8301 18.5011C20.0899 18.551 20.359 18.4959 20.5783 18.3478C20.7976 18.1997 20.9493 17.9708 21.0001 17.7111C21.0215 17.581 21.017 17.448 20.9868 17.3197C20.9566 17.1914 20.9014 17.0704 20.8242 16.9635C20.7471 16.8566 20.6496 16.7661 20.5373 16.697C20.4251 16.6279 20.3003 16.5818 20.1701 16.5611Z" fill="#0D1B1D"/>
</svg>
