<svg width="32" height="33" viewBox="0 0 32 33" fill="none" xmlns="http://www.w3.org/2000/svg">
<path d="M28.2266 2.80717C27.2709 2.64255 26.3031 2.55781 25.3333 2.55384C22.0244 2.55113 18.7846 3.49994 16 5.28717C13.2081 3.5234 9.96882 2.59788 6.66662 2.62051C5.69681 2.62448 4.72902 2.70922 3.77328 2.87384C3.46023 2.92781 3.17672 3.09178 2.97383 3.33623C2.77094 3.58068 2.662 3.88953 2.66662 4.20717V20.2072C2.66376 20.4031 2.70412 20.5972 2.78482 20.7758C2.86552 20.9543 2.98457 21.1129 3.13351 21.2402C3.28246 21.3675 3.45763 21.4604 3.64656 21.5123C3.83549 21.5642 4.03354 21.5738 4.22662 21.5405C6.13731 21.2097 8.09489 21.2646 9.98404 21.7019C11.8732 22.1393 13.6557 22.9503 15.2266 24.0872L15.3866 24.1805H15.5333C15.6812 24.2421 15.8398 24.2738 16 24.2738C16.1601 24.2738 16.3187 24.2421 16.4666 24.1805H16.6133L16.7733 24.0872C18.3332 22.9249 20.1106 22.0876 22.0001 21.625C23.8897 21.1623 25.8528 21.0837 27.7733 21.3938C27.9664 21.4272 28.1644 21.4175 28.3533 21.3656C28.5423 21.3137 28.7174 21.2208 28.8664 21.0935C29.0153 20.9662 29.1344 20.8076 29.2151 20.6291C29.2958 20.4506 29.3361 20.2564 29.3333 20.0605V4.06051C29.3194 3.75671 29.2021 3.46679 29.0008 3.23882C28.7995 3.01086 28.5264 2.85855 28.2266 2.80717ZM14.6666 20.5272C12.1998 19.2294 9.45397 18.5521 6.66662 18.5538C6.22662 18.5538 5.78662 18.5538 5.33328 18.5538V5.22051C5.77736 5.19491 6.22254 5.19491 6.66662 5.22051C9.51113 5.21736 12.2936 6.05209 14.6666 7.62051V20.5272ZM26.6666 18.6072C26.2133 18.6072 25.7733 18.6072 25.3333 18.6072C22.5459 18.6055 19.8001 19.2828 17.3333 20.5805V7.62051C19.7063 6.05209 22.4888 5.21736 25.3333 5.22051C25.7774 5.19491 26.2225 5.19491 26.6666 5.22051V18.6072ZM28.2266 24.1405C27.2709 23.9759 26.3031 23.8911 25.3333 23.8872C22.0244 23.8845 18.7846 24.8333 16 26.6205C13.2153 24.8333 9.97546 23.8845 6.66662 23.8872C5.69681 23.8911 4.72902 23.9759 3.77328 24.1405C3.59972 24.168 3.43331 24.2296 3.28363 24.3217C3.13395 24.4138 3.00395 24.5346 2.90111 24.677C2.79826 24.8195 2.7246 24.981 2.68436 25.152C2.64411 25.3231 2.63808 25.5004 2.66662 25.6738C2.73437 26.0201 2.9366 26.3254 3.229 26.5228C3.5214 26.7202 3.88014 26.7937 4.22662 26.7272C6.13731 26.3964 8.09489 26.4512 9.98404 26.8886C11.8732 27.326 13.6557 28.137 15.2266 29.2738C15.4524 29.4346 15.7227 29.521 16 29.521C16.2772 29.521 16.5475 29.4346 16.7733 29.2738C18.3442 28.137 20.1267 27.326 22.0159 26.8886C23.905 26.4512 25.8626 26.3964 27.7733 26.7272C28.1198 26.7937 28.4785 26.7202 28.7709 26.5228C29.0633 26.3254 29.2655 26.0201 29.3333 25.6738C29.3618 25.5004 29.3558 25.3231 29.3155 25.152C29.2753 24.981 29.2016 24.8195 29.0988 24.677C28.9959 24.5346 28.8659 24.4138 28.7163 24.3217C28.5666 24.2296 28.4002 24.168 28.2266 24.1405Z" fill="white"/>
</svg>
