<svg width="12" height="18" viewBox="0 0 12 18" fill="none" xmlns="http://www.w3.org/2000/svg">
<path d="M1.2797 9.94678L8.82637 17.4801C8.95032 17.6051 9.09778 17.7043 9.26026 17.772C9.42274 17.8397 9.59702 17.8745 9.77303 17.8745C9.94905 17.8745 10.1233 17.8397 10.2858 17.772C10.4483 17.7043 10.5957 17.6051 10.7197 17.4801C10.968 17.2303 11.1074 16.8924 11.1074 16.5401C11.1074 16.1879 10.968 15.8499 10.7197 15.6001L4.1197 8.93345L10.7197 2.33345C10.968 2.08363 11.1074 1.7457 11.1074 1.39345C11.1074 1.0412 10.968 0.703266 10.7197 0.453449C10.5962 0.327465 10.449 0.227238 10.2865 0.158575C10.124 0.0899123 9.94944 0.054182 9.77303 0.0534495C9.59662 0.0541819 9.42211 0.0899123 9.25961 0.158575C9.09711 0.227238 8.94985 0.327465 8.82637 0.453449L1.2797 7.98678C1.14436 8.11164 1.03635 8.26317 0.962472 8.43184C0.888595 8.6005 0.850455 8.78265 0.850455 8.96678C0.850455 9.15092 0.888595 9.33306 0.962472 9.50172C1.03635 9.67039 1.14436 9.82192 1.2797 9.94678Z" fill="#0D1B1D"/>
</svg>
