<svg width="18" height="18" viewBox="0 0 18 18" fill="none" xmlns="http://www.w3.org/2000/svg">
<path fill-rule="evenodd" clip-rule="evenodd" d="M6.93934 6.43934C6.65804 6.72064 6.5 7.10218 6.5 7.5V16.5C6.5 16.8978 6.65804 17.2794 6.93934 17.5607C7.22064 17.842 7.60218 18 8 18H10C10.3978 18 10.7794 17.842 11.0607 17.5607C11.342 17.2794 11.5 16.8978 11.5 16.5V7.5C11.5 7.10218 11.342 6.72064 11.0607 6.43934C10.7794 6.15804 10.3978 6 10 6H8C7.60218 6 7.22064 6.15804 6.93934 6.43934ZM0.43934 12.4393C0.720644 12.158 1.10218 12 1.5 12H3.5C3.89782 12 4.27936 12.158 4.56066 12.4393C4.84196 12.7206 5 13.1022 5 13.5V16.5C5 16.8978 4.84196 17.2794 4.56066 17.5607C4.27936 17.842 3.89782 18 3.5 18H1.5C1.10218 18 0.720644 17.842 0.43934 17.5607C0.158035 17.2794 0 16.8978 0 16.5V13.5C0 13.1022 0.158035 12.7206 0.43934 12.4393Z" fill="#00808B"/>
<path d="M13 1.5C13 1.10218 13.158 0.720644 13.4393 0.43934C13.7206 0.158035 14.1022 0 14.5 0H16.5C16.8978 0 17.2794 0.158035 17.5607 0.43934C17.842 0.720644 18 1.10218 18 1.5V16.5C18 16.8978 17.842 17.2794 17.5607 17.5607C17.2794 17.842 16.8978 18 16.5 18H14.5C14.1022 18 13.7206 17.842 13.4393 17.5607C13.158 17.2794 13 16.8978 13 16.5V1.5Z" fill="#222222"/>
</svg>
