<svg width="20" height="20" viewBox="0 0 20 20" fill="none" xmlns="http://www.w3.org/2000/svg">
<path d="M10.1101 13.3901L6.23008 17.2701C5.76032 17.7235 5.13294 17.9768 4.48008 17.9768C3.82722 17.9768 3.19984 17.7235 2.73008 17.2701C2.49969 17.0406 2.31687 16.7679 2.19213 16.4676C2.06739 16.1673 2.00318 15.8453 2.00318 15.5201C2.00318 15.1949 2.06739 14.8729 2.19213 14.5726C2.31687 14.2723 2.49969 13.9996 2.73008 13.7701L6.61008 9.89009C6.79838 9.70179 6.90417 9.4464 6.90417 9.18009C6.90417 8.91379 6.79838 8.6584 6.61008 8.47009C6.42178 8.28179 6.16638 8.176 5.90008 8.176C5.63378 8.176 5.37838 8.28179 5.19008 8.47009L1.31008 12.3601C0.528437 13.2109 0.105701 14.3308 0.130155 15.4858C0.154609 16.6409 0.624362 17.7419 1.44131 18.5589C2.25826 19.3758 3.35924 19.8456 4.51433 19.87C5.66941 19.8945 6.78929 19.4717 7.64008 18.6901L11.5301 14.8101C11.7184 14.6218 11.8242 14.3664 11.8242 14.1001C11.8242 13.8338 11.7184 13.5784 11.5301 13.3901C11.3418 13.2018 11.0864 13.096 10.8201 13.096C10.5538 13.096 10.2984 13.2018 10.1101 13.3901ZM18.6901 1.31009C17.8489 0.474102 16.7111 0.00488281 15.5251 0.00488281C14.3391 0.00488281 13.2013 0.474102 12.3601 1.31009L8.47008 5.19009C8.37684 5.28333 8.30288 5.39402 8.25242 5.51585C8.20196 5.63767 8.17599 5.76824 8.17599 5.90009C8.17599 6.03195 8.20196 6.16252 8.25242 6.28434C8.30288 6.40617 8.37684 6.51686 8.47008 6.61009C8.56332 6.70333 8.67401 6.77729 8.79583 6.82775C8.91765 6.87821 9.04822 6.90419 9.18008 6.90419C9.31194 6.90419 9.44251 6.87821 9.56433 6.82775C9.68615 6.77729 9.79684 6.70333 9.89008 6.61009L13.7701 2.73009C14.2398 2.27672 14.8672 2.02335 15.5201 2.02335C16.1729 2.02335 16.8003 2.27672 17.2701 2.73009C17.5005 2.95958 17.6833 3.2323 17.808 3.53261C17.9328 3.83292 17.997 4.15491 17.997 4.48009C17.997 4.80528 17.9328 5.12727 17.808 5.42758C17.6833 5.72789 17.5005 6.00061 17.2701 6.23009L13.3901 10.1101C13.2964 10.2031 13.222 10.3137 13.1712 10.4355C13.1204 10.5574 13.0943 10.6881 13.0943 10.8201C13.0943 10.9521 13.1204 11.0828 13.1712 11.2047C13.222 11.3265 13.2964 11.4371 13.3901 11.5301C13.483 11.6238 13.5936 11.6982 13.7155 11.749C13.8374 11.7998 13.9681 11.8259 14.1001 11.8259C14.2321 11.8259 14.3628 11.7998 14.4847 11.749C14.6065 11.6982 14.7171 11.6238 14.8101 11.5301L18.6901 7.64009C19.5261 6.79887 19.9953 5.66107 19.9953 4.47509C19.9953 3.28912 19.5261 2.15131 18.6901 1.31009ZM6.83008 13.1701C6.92352 13.2628 7.03434 13.3361 7.15617 13.3859C7.27801 13.4356 7.40847 13.4609 7.54008 13.4601C7.67169 13.4609 7.80215 13.4356 7.92399 13.3859C8.04582 13.3361 8.15664 13.2628 8.25008 13.1701L13.1701 8.25009C13.3584 8.06179 13.4642 7.8064 13.4642 7.54009C13.4642 7.27379 13.3584 7.0184 13.1701 6.83009C12.9818 6.64179 12.7264 6.536 12.4601 6.536C12.1938 6.536 11.9384 6.64179 11.7501 6.83009L6.83008 11.7501C6.73635 11.8431 6.66196 11.9537 6.61119 12.0755C6.56042 12.1974 6.53428 12.3281 6.53428 12.4601C6.53428 12.5921 6.56042 12.7228 6.61119 12.8447C6.66196 12.9665 6.73635 13.0771 6.83008 13.1701Z" fill="#0D1B1D"/>
</svg>
