<svg width="20" height="20" viewBox="0 0 20 20" fill="none" xmlns="http://www.w3.org/2000/svg">
<path d="M10.1098 13.3901L6.22984 17.2701C5.76007 17.7235 5.1327 17.9768 4.47984 17.9768C3.82698 17.9768 3.1996 17.7235 2.72984 17.2701C2.49944 17.0406 2.31663 16.7679 2.19189 16.4676C2.06715 16.1673 2.00294 15.8453 2.00294 15.5201C2.00294 15.1949 2.06715 14.8729 2.19189 14.5726C2.31663 14.2723 2.49944 13.9996 2.72984 13.7701L6.60984 9.89009C6.79814 9.70179 6.90393 9.4464 6.90393 9.18009C6.90393 8.91379 6.79814 8.6584 6.60984 8.47009C6.42153 8.28179 6.16614 8.176 5.89984 8.176C5.63353 8.176 5.37814 8.28179 5.18984 8.47009L1.30984 12.3601C0.528193 13.2109 0.105457 14.3308 0.129911 15.4858C0.154365 16.6409 0.624118 17.7419 1.44107 18.5589C2.25802 19.3758 3.359 19.8456 4.51408 19.87C5.66917 19.8945 6.78904 19.4717 7.63984 18.6901L11.5298 14.8101C11.7181 14.6218 11.8239 14.3664 11.8239 14.1001C11.8239 13.8338 11.7181 13.5784 11.5298 13.3901C11.3415 13.2018 11.0861 13.096 10.8198 13.096C10.5535 13.096 10.2981 13.2018 10.1098 13.3901ZM18.6898 1.31009C17.8486 0.474102 16.7108 0.00488281 15.5248 0.00488281C14.3389 0.00488281 13.2011 0.474102 12.3598 1.31009L8.46984 5.19009C8.3766 5.28333 8.30264 5.39402 8.25218 5.51585C8.20172 5.63767 8.17575 5.76824 8.17575 5.90009C8.17575 6.03195 8.20172 6.16252 8.25218 6.28434C8.30264 6.40617 8.3766 6.51686 8.46984 6.61009C8.56308 6.70333 8.67377 6.77729 8.79559 6.82775C8.91741 6.87821 9.04798 6.90419 9.17984 6.90419C9.3117 6.90419 9.44226 6.87821 9.56409 6.82775C9.68591 6.77729 9.7966 6.70333 9.88984 6.61009L13.7698 2.73009C14.2396 2.27672 14.867 2.02335 15.5198 2.02335C16.1727 2.02335 16.8001 2.27672 17.2698 2.73009C17.5002 2.95958 17.683 3.2323 17.8078 3.53261C17.9325 3.83292 17.9967 4.15491 17.9967 4.48009C17.9967 4.80528 17.9325 5.12727 17.8078 5.42758C17.683 5.72789 17.5002 6.00061 17.2698 6.23009L13.3898 10.1101C13.2961 10.2031 13.2217 10.3137 13.1709 10.4355C13.1202 10.5574 13.094 10.6881 13.094 10.8201C13.094 10.9521 13.1202 11.0828 13.1709 11.2047C13.2217 11.3265 13.2961 11.4371 13.3898 11.5301C13.4828 11.6238 13.5934 11.6982 13.7153 11.749C13.8371 11.7998 13.9678 11.8259 14.0998 11.8259C14.2318 11.8259 14.3626 11.7998 14.4844 11.749C14.6063 11.6982 14.7169 11.6238 14.8098 11.5301L18.6898 7.64009C19.5258 6.79887 19.995 5.66107 19.995 4.47509C19.995 3.28912 19.5258 2.15131 18.6898 1.31009ZM6.82984 13.1701C6.92328 13.2628 7.03409 13.3361 7.15593 13.3859C7.27777 13.4356 7.40823 13.4609 7.53984 13.4601C7.67144 13.4609 7.80191 13.4356 7.92374 13.3859C8.04558 13.3361 8.1564 13.2628 8.24984 13.1701L13.1698 8.25009C13.3581 8.06179 13.4639 7.8064 13.4639 7.54009C13.4639 7.27379 13.3581 7.0184 13.1698 6.83009C12.9815 6.64179 12.7261 6.536 12.4598 6.536C12.1935 6.536 11.9381 6.64179 11.7498 6.83009L6.82984 11.7501C6.73611 11.8431 6.66171 11.9537 6.61095 12.0755C6.56018 12.1974 6.53404 12.3281 6.53404 12.4601C6.53404 12.5921 6.56018 12.7228 6.61095 12.8447C6.66171 12.9665 6.73611 13.0771 6.82984 13.1701Z" fill="#0D1B1D"/>
</svg>
