<svg width="28" height="28" viewBox="0 0 28 28" fill="none" xmlns="http://www.w3.org/2000/svg">
<path d="M14.7865 15.3939L11.7198 18.4472C11.5949 18.5711 11.4957 18.7186 11.428 18.8811C11.3603 19.0436 11.3254 19.2178 11.3254 19.3939C11.3254 19.5699 11.3603 19.7441 11.428 19.9066C11.4957 20.0691 11.5949 20.2166 11.7198 20.3405C11.8438 20.4655 11.9913 20.5647 12.1537 20.6324C12.3162 20.7001 12.4905 20.7349 12.6665 20.7349C12.8425 20.7349 13.0168 20.7001 13.1793 20.6324C13.3418 20.5647 13.4892 20.4655 13.6132 20.3405L18.9465 15.0072C19.0679 14.8804 19.163 14.7309 19.2265 14.5672C19.3599 14.2426 19.3599 13.8785 19.2265 13.5539C19.163 13.3902 19.0679 13.2407 18.9465 13.1139L13.6132 7.78052C13.4889 7.6562 13.3413 7.55758 13.1788 7.4903C13.0164 7.42302 12.8423 7.38839 12.6665 7.38839C12.4907 7.38839 12.3166 7.42302 12.1542 7.4903C11.9917 7.55758 11.8442 7.6562 11.7198 7.78052C11.5955 7.90484 11.4969 8.05242 11.4296 8.21485C11.3623 8.37728 11.3277 8.55137 11.3277 8.72718C11.3277 8.903 11.3623 9.07709 11.4296 9.23952C11.4969 9.40195 11.5955 9.54953 11.7198 9.67385L14.7865 12.7272H1.99984C1.64622 12.7272 1.30708 12.8677 1.05703 13.1177C0.80698 13.3678 0.666504 13.7069 0.666504 14.0605C0.666504 14.4141 0.80698 14.7533 1.05703 15.0033C1.30708 15.2534 1.64622 15.3939 1.99984 15.3939H14.7865ZM13.9998 0.727184C11.508 0.716059 9.06283 1.40347 6.94179 2.71144C4.82076 4.01941 3.10871 5.8956 1.99984 8.12718C1.84071 8.44544 1.81452 8.81388 1.92705 9.15145C2.03957 9.48901 2.28158 9.76805 2.59984 9.92718C2.9181 10.0863 3.28654 10.1125 3.6241 9.99998C3.96167 9.88745 4.24071 9.64544 4.39984 9.32718C5.24276 7.62495 6.52495 6.17868 8.1139 5.13783C9.70286 4.09699 11.5409 3.49934 13.4382 3.40664C15.3354 3.31394 17.223 3.72955 18.9059 4.61053C20.5887 5.49151 22.0058 6.80589 23.0107 8.41784C24.0155 10.0298 24.5717 11.8808 24.6217 13.7797C24.6717 15.6785 24.2138 17.5563 23.2952 19.2189C22.3766 20.8816 21.0307 22.2687 19.3966 23.2371C17.7624 24.2054 15.8993 24.7199 13.9998 24.7272C12.0117 24.7358 10.0614 24.1837 8.37276 23.1342C6.68414 22.0847 5.32564 20.5804 4.45317 18.7939C4.29404 18.4756 4.015 18.2336 3.67743 18.1211C3.33987 18.0085 2.97143 18.0347 2.65317 18.1939C2.33491 18.353 2.0929 18.632 1.98038 18.9696C1.86786 19.3072 1.89404 19.6756 2.05317 19.9939C3.11027 22.1212 4.71653 23.9275 6.7058 25.2259C8.69507 26.5243 10.9951 27.2677 13.368 27.3792C15.7409 27.4906 18.1005 26.9661 20.2027 25.8599C22.3049 24.7536 24.0734 23.1058 25.3253 21.0869C26.5771 19.0681 27.2669 16.7514 27.3232 14.3765C27.3795 12.0017 26.8003 9.65491 25.6455 7.57896C24.4907 5.50301 22.8023 3.77327 20.7549 2.56866C18.7074 1.36404 16.3754 0.728299 13.9998 0.727184Z" fill="white"/>
</svg>
