<svg width="32" height="33" viewBox="0 0 32 33" fill="none" xmlns="http://www.w3.org/2000/svg">
<path d="M25.3332 5.39453H6.6665C5.60564 5.39453 4.58822 5.81596 3.83808 6.5661C3.08793 7.31625 2.6665 8.33367 2.6665 9.39453V22.7279C2.6665 23.7887 3.08793 24.8061 3.83808 25.5563C4.58822 26.3064 5.60564 26.7279 6.6665 26.7279H25.3332C26.394 26.7279 27.4115 26.3064 28.1616 25.5563C28.9117 24.8061 29.3332 23.7887 29.3332 22.7279V9.39453C29.3332 8.33367 28.9117 7.31625 28.1616 6.5661C27.4115 5.81596 26.394 5.39453 25.3332 5.39453ZM6.6665 8.0612H25.3332C25.6868 8.0612 26.0259 8.20167 26.276 8.45172C26.526 8.70177 26.6665 9.04091 26.6665 9.39453L15.9998 15.9012L5.33317 9.39453C5.33317 9.04091 5.47365 8.70177 5.7237 8.45172C5.97374 8.20167 6.31288 8.0612 6.6665 8.0612ZM26.6665 22.7279C26.6665 23.0815 26.526 23.4206 26.276 23.6707C26.0259 23.9207 25.6868 24.0612 25.3332 24.0612H6.6665C6.31288 24.0612 5.97374 23.9207 5.7237 23.6707C5.47365 23.4206 5.33317 23.0815 5.33317 22.7279V12.4345L15.3065 18.5279C15.5092 18.6449 15.7391 18.7065 15.9732 18.7065C16.2072 18.7065 16.4371 18.6449 16.6398 18.5279L26.6665 12.4345V22.7279Z" fill="white"/>
</svg>
