<svg width="20" height="21" viewBox="0 0 20 21" fill="none" xmlns="http://www.w3.org/2000/svg">
<path d="M13.71 11.2116C14.6904 10.4402 15.406 9.38251 15.7572 8.18553C16.1085 6.98855 16.0779 5.71185 15.6698 4.53306C15.2617 3.35426 14.4963 2.33198 13.4801 1.60845C12.4639 0.884908 11.2474 0.496094 10 0.496094C8.75255 0.496094 7.53611 0.884908 6.51993 1.60845C5.50374 2.33198 4.73834 3.35426 4.33021 4.53306C3.92208 5.71185 3.89151 6.98855 4.24276 8.18553C4.59401 9.38251 5.3096 10.4402 6.29 11.2116C4.61007 11.8846 3.14428 13.0009 2.04889 14.4415C0.953495 15.8821 0.26956 17.5929 0.0699967 19.3916C0.0555513 19.5229 0.0671132 19.6558 0.104022 19.7826C0.140931 19.9095 0.202464 20.0278 0.285108 20.1309C0.452016 20.3391 0.69478 20.4724 0.959997 20.5016C1.22521 20.5308 1.49116 20.4534 1.69932 20.2865C1.90749 20.1196 2.04082 19.8768 2.07 19.6116C2.28958 17.6568 3.22168 15.8514 4.68822 14.5404C6.15475 13.2294 8.0529 12.5046 10.02 12.5046C11.9871 12.5046 13.8852 13.2294 15.3518 14.5404C16.8183 15.8514 17.7504 17.6568 17.97 19.6116C17.9972 19.8573 18.1144 20.0842 18.2991 20.2486C18.4838 20.413 18.7228 20.5031 18.97 20.5016H19.08C19.3421 20.4714 19.5817 20.3389 19.7466 20.1328C19.9114 19.9268 19.9881 19.6639 19.96 19.4016C19.7595 17.5978 19.0719 15.8826 17.9708 14.4398C16.8698 12.997 15.3969 11.8811 13.71 11.2116ZM10 10.5016C9.20887 10.5016 8.43551 10.267 7.77772 9.82747C7.11992 9.38794 6.60723 8.76323 6.30448 8.03232C6.00173 7.30142 5.92251 6.49715 6.07686 5.72123C6.2312 4.9453 6.61216 4.23257 7.17157 3.67316C7.73098 3.11375 8.44371 2.73279 9.21964 2.57845C9.99556 2.42411 10.7998 2.50332 11.5307 2.80607C12.2616 3.10882 12.8863 3.62151 13.3259 4.27931C13.7654 4.9371 14 5.71046 14 6.50159C14 7.56245 13.5786 8.57987 12.8284 9.33002C12.0783 10.0802 11.0609 10.5016 10 10.5016Z" fill="#0D1B1D"/>
</svg>
