<svg width="20" height="20" viewBox="0 0 20 20" fill="none" xmlns="http://www.w3.org/2000/svg">
<path d="M17.7501 8.39987C17.5159 8.11875 17.2229 7.89244 16.8917 7.73693C16.5606 7.58142 16.1993 7.5005 15.8334 7.49987H12.0334L12.5001 6.30821C12.6942 5.78644 12.7588 5.22538 12.6885 4.67314C12.6181 4.1209 12.4148 3.59398 12.0961 3.13757C11.7773 2.68115 11.3526 2.30887 10.8584 2.05266C10.3641 1.79645 9.81511 1.66395 9.25841 1.66654C9.09811 1.66688 8.94131 1.71344 8.80681 1.80064C8.6723 1.88785 8.5658 2.012 8.50008 2.15821L6.12508 7.49987H4.16675C3.50371 7.49987 2.86782 7.76327 2.39898 8.23211C1.93014 8.70095 1.66675 9.33683 1.66675 9.99987V15.8332C1.66675 16.4962 1.93014 17.1321 2.39898 17.601C2.86782 18.0698 3.50371 18.3332 4.16675 18.3332H14.7751C15.3599 18.333 15.9262 18.1278 16.3754 17.7532C16.8245 17.3787 17.1281 16.8585 17.2334 16.2832L18.2917 10.4499C18.3572 10.0894 18.3426 9.71886 18.249 9.3646C18.1554 9.01035 17.9851 8.681 17.7501 8.39987ZM5.83341 16.6665H4.16675C3.94573 16.6665 3.73377 16.5787 3.57749 16.4225C3.42121 16.2662 3.33341 16.0542 3.33341 15.8332V9.99987C3.33341 9.77886 3.42121 9.5669 3.57749 9.41062C3.73377 9.25434 3.94573 9.16654 4.16675 9.16654H5.83341V16.6665ZM16.6667 10.1499L15.6084 15.9832C15.5729 16.1773 15.4697 16.3526 15.3171 16.4777C15.1645 16.6028 14.9724 16.6698 14.7751 16.6665H7.50008V8.50821L9.76675 3.40821C10.0001 3.47623 10.2168 3.59188 10.4031 3.74786C10.5895 3.90384 10.7415 4.09676 10.8496 4.31445C10.9576 4.53214 11.0194 4.76987 11.031 5.01262C11.0425 5.25538 11.0036 5.4979 10.9167 5.72487L10.4751 6.91654C10.381 7.16842 10.3492 7.43933 10.3825 7.70615C10.4158 7.97297 10.5131 8.22778 10.6662 8.44882C10.8193 8.66987 11.0236 8.8506 11.2617 8.97557C11.4997 9.10055 11.7645 9.16607 12.0334 9.16654H15.8334C15.9558 9.16634 16.0768 9.19312 16.1877 9.24497C16.2986 9.29682 16.3967 9.37247 16.4751 9.46654C16.5554 9.55931 16.6142 9.66866 16.6473 9.78678C16.6804 9.90491 16.6871 10.0289 16.6667 10.1499Z" fill="#465D61"/>
</svg>
