<svg width="22" height="22" viewBox="0 0 22 22" fill="none" xmlns="http://www.w3.org/2000/svg">
<path fill-rule="evenodd" clip-rule="evenodd" d="M12.3279 1.78515C12.3313 1.74633 12.333 1.70703 12.333 1.66732C12.333 0.930938 11.7361 0.333984 10.9997 0.333984C10.2633 0.333984 9.66634 0.930938 9.66634 1.66732C9.66634 1.70703 9.66808 1.74633 9.67148 1.78515C6.09788 2.4268 3.3826 5.61216 3.3826 9.44509V11.0524C3.3826 13.0399 2.74811 14.9756 1.57152 16.5775L0.640457 17.8451C-0.112761 18.8706 0.603826 20.334 1.85919 20.334H9.66634C9.66634 21.0704 10.2633 21.6673 10.9997 21.6673C11.7361 21.6673 12.333 21.0704 12.333 20.334H20.1402C21.3955 20.334 22.1121 18.8706 21.3589 17.8451L20.4278 16.5775C19.2512 14.9756 18.6167 13.0399 18.6167 11.0524V9.44509C18.6167 5.61216 15.9015 2.4268 12.3279 1.78515ZM6.04927 9.44509C6.04927 6.56954 8.31785 4.33398 10.9997 4.33398C13.6815 4.33398 15.9501 6.56954 15.9501 9.44509V11.0524C15.9501 13.4088 16.6438 15.7085 17.938 17.6673H4.06139C5.35559 15.7085 6.04927 13.4088 6.04927 11.0524V9.44509Z" fill="#00808B"/>
</svg>
