<svg width="51" height="45" viewBox="0 0 51 45" fill="none" xmlns="http://www.w3.org/2000/svg">
<path d="M50.8209 22.1391C50.8209 28.0084 48.1805 33.6374 43.4806 37.7876C38.7807 41.9378 32.4062 44.2694 25.7596 44.2694C19.1129 44.2694 12.7384 41.9378 8.03853 37.7876C3.33862 33.6374 0.698242 28.0084 0.698242 22.1391C0.698242 16.2698 3.33862 10.6408 8.03853 6.49061C12.7384 2.34037 19.1129 0.00878906 25.7596 0.00878906C32.4062 0.00878906 38.7807 2.34037 43.4806 6.49061C48.1805 10.6408 50.8209 16.2698 50.8209 22.1391ZM21.969 14.0975C21.7348 13.9502 21.4592 13.8628 21.1725 13.8446C20.8857 13.8265 20.5988 13.8784 20.3432 13.9947C20.0876 14.1109 19.8732 14.2871 19.7235 14.5038C19.5737 14.7206 19.4944 14.9695 19.4942 15.2234V29.0548C19.4944 29.3087 19.5737 29.5576 19.7235 29.7744C19.8732 29.9911 20.0876 30.1673 20.3432 30.2835C20.5988 30.3998 20.8857 30.4517 21.1725 30.4336C21.4592 30.4154 21.7348 30.328 21.969 30.1807L32.9334 23.265C33.1364 23.137 33.3019 22.9681 33.4161 22.7723C33.5303 22.5765 33.5899 22.3594 33.5899 22.1391C33.5899 21.9188 33.5303 21.7017 33.4161 21.5059C33.3019 21.3101 33.1364 21.1412 32.9334 21.0132L21.969 14.0975Z" fill="white"/>
</svg>
