<svg width="21" height="21" viewBox="0 0 21 21" fill="none" xmlns="http://www.w3.org/2000/svg">
<path d="M18.9583 9.29134H11.7083V2.04134C11.7083 1.72087 11.581 1.41353 11.3544 1.18692C11.1278 0.960314 10.8204 0.833008 10.5 0.833008C10.1795 0.833008 9.87216 0.960314 9.64556 1.18692C9.41895 1.41353 9.29165 1.72087 9.29165 2.04134V9.29134H2.04165C1.72118 9.29134 1.41383 9.41865 1.18723 9.64525C0.960619 9.87186 0.833313 10.1792 0.833313 10.4997C0.833313 10.8201 0.960619 11.1275 1.18723 11.3541C1.41383 11.5807 1.72118 11.708 2.04165 11.708H9.29165V18.958C9.29165 19.2785 9.41895 19.5858 9.64556 19.8124C9.87216 20.039 10.1795 20.1663 10.5 20.1663C10.8204 20.1663 11.1278 20.039 11.3544 19.8124C11.581 19.5858 11.7083 19.2785 11.7083 18.958V11.708H18.9583C19.2788 11.708 19.5861 11.5807 19.8127 11.3541C20.0393 11.1275 20.1666 10.8201 20.1666 10.4997C20.1666 10.1792 20.0393 9.87186 19.8127 9.64525C19.5861 9.41865 19.2788 9.29134 18.9583 9.29134Z" fill="white"/>
</svg>
