<svg width="32" height="33" viewBox="0 0 32 33" fill="none" xmlns="http://www.w3.org/2000/svg">
<path d="M20.9467 17.0072C22.2539 15.9787 23.208 14.5684 23.6763 12.9724C24.1446 11.3765 24.1039 9.6742 23.5597 8.10247C23.0155 6.53074 21.995 5.1677 20.6401 4.20298C19.2852 3.23827 17.6633 2.71985 16 2.71985C14.3367 2.71985 12.7148 3.23827 11.3599 4.20298C10.005 5.1677 8.98446 6.53074 8.44028 8.10247C7.8961 9.6742 7.85535 11.3765 8.32368 12.9724C8.79201 14.5684 9.74614 15.9787 11.0533 17.0072C8.81343 17.9046 6.85905 19.393 5.39852 21.3137C3.93799 23.2345 3.02608 25.5156 2.76 27.9138C2.74074 28.0889 2.75615 28.2661 2.80536 28.4353C2.85457 28.6044 2.93662 28.7622 3.04681 28.8996C3.26935 29.1772 3.59304 29.3549 3.94666 29.3938C4.30028 29.4327 4.65488 29.3296 4.93243 29.107C5.20998 28.8845 5.38776 28.5608 5.42666 28.2072C5.71944 25.6008 6.96224 23.1936 8.91762 21.4456C10.873 19.6975 13.4039 18.7312 16.0267 18.7312C18.6495 18.7312 21.1803 19.6975 23.1357 21.4456C25.0911 23.1936 26.3339 25.6008 26.6267 28.2072C26.6629 28.5348 26.8192 28.8374 27.0655 29.0565C27.3117 29.2757 27.6304 29.3958 27.96 29.3938H28.1067C28.4562 29.3536 28.7756 29.1769 28.9954 28.9022C29.2152 28.6274 29.3175 28.277 29.28 27.9272C29.0127 25.5221 28.0958 23.2352 26.6278 21.3114C25.1598 19.3877 23.1959 17.8998 20.9467 17.0072ZM16 16.0605C14.9452 16.0605 13.914 15.7477 13.037 15.1617C12.1599 14.5756 11.4763 13.7427 11.0726 12.7682C10.669 11.7936 10.5634 10.7213 10.7691 9.68669C10.9749 8.65213 11.4829 7.70182 12.2288 6.95594C12.9746 6.21006 13.9249 5.70211 14.9595 5.49632C15.9941 5.29053 17.0664 5.39615 18.041 5.79982C19.0155 6.20349 19.8485 6.88707 20.4345 7.76413C21.0205 8.6412 21.3333 9.67234 21.3333 10.7272C21.3333 12.1417 20.7714 13.4982 19.7712 14.4984C18.771 15.4986 17.4145 16.0605 16 16.0605Z" fill="white"/>
</svg>
