<svg width="20" height="20" viewBox="0 0 20 20" fill="none" xmlns="http://www.w3.org/2000/svg">
<path d="M17 0H3C2.20435 0 1.44129 0.316071 0.87868 0.87868C0.316071 1.44129 0 2.20435 0 3V13C0 13.7956 0.316071 14.5587 0.87868 15.1213C1.44129 15.6839 2.20435 16 3 16H14.59L18.29 19.71C18.3834 19.8027 18.4943 19.876 18.6161 19.9258C18.7379 19.9755 18.8684 20.0008 19 20C19.1312 20.0034 19.2613 19.976 19.38 19.92C19.5626 19.845 19.7189 19.7176 19.8293 19.5539C19.9396 19.3901 19.999 19.1974 20 19V3C20 2.20435 19.6839 1.44129 19.1213 0.87868C18.5587 0.316071 17.7956 0 17 0ZM18 16.59L15.71 14.29C15.6166 14.1973 15.5057 14.124 15.3839 14.0742C15.2621 14.0245 15.1316 13.9992 15 14H3C2.73478 14 2.48043 13.8946 2.29289 13.7071C2.10536 13.5196 2 13.2652 2 13V3C2 2.73478 2.10536 2.48043 2.29289 2.29289C2.48043 2.10536 2.73478 2 3 2H17C17.2652 2 17.5196 2.10536 17.7071 2.29289C17.8946 2.48043 18 2.73478 18 3V16.59ZM10 10C9.80222 10 9.60888 10.0586 9.44443 10.1685C9.27998 10.2784 9.15181 10.4346 9.07612 10.6173C9.00043 10.8 8.98063 11.0011 9.01921 11.1951C9.0578 11.3891 9.15304 11.5673 9.29289 11.7071C9.43275 11.847 9.61093 11.9422 9.80491 11.9808C9.99889 12.0194 10.2 11.9996 10.3827 11.9239C10.5654 11.8482 10.7216 11.72 10.8315 11.5556C10.9414 11.3911 11 11.1978 11 11C11 10.7348 10.8946 10.4804 10.7071 10.2929C10.5196 10.1054 10.2652 10 10 10ZM10 4C9.73478 4 9.48043 4.10536 9.29289 4.29289C9.10536 4.48043 9 4.73478 9 5V8C9 8.26522 9.10536 8.51957 9.29289 8.70711C9.48043 8.89464 9.73478 9 10 9C10.2652 9 10.5196 8.89464 10.7071 8.70711C10.8946 8.51957 11 8.26522 11 8V5C11 4.73478 10.8946 4.48043 10.7071 4.29289C10.5196 4.10536 10.2652 4 10 4Z" fill="#0D1B1D"/>
</svg>
