<svg width="8" height="15" viewBox="0 0 8 15" fill="none" xmlns="http://www.w3.org/2000/svg">
<path d="M7.54023 6.79004L1.88023 1.14004C1.78726 1.04631 1.67666 0.971914 1.5548 0.921145C1.43294 0.870377 1.30224 0.844238 1.17023 0.844238C1.03821 0.844238 0.907509 0.870377 0.785649 0.921145C0.66379 0.971914 0.553189 1.04631 0.460226 1.14004C0.273975 1.3274 0.169434 1.58085 0.169434 1.84504C0.169434 2.10922 0.273975 2.36267 0.460226 2.55004L5.41023 7.55004L0.460226 12.5C0.273975 12.6874 0.169434 12.9409 0.169434 13.205C0.169434 13.4692 0.273975 13.7227 0.460226 13.91C0.552841 14.0045 0.663286 14.0797 0.785161 14.1312C0.907036 14.1827 1.03792 14.2095 1.17023 14.21C1.30253 14.2095 1.43342 14.1827 1.55529 14.1312C1.67717 14.0797 1.78761 14.0045 1.88023 13.91L7.54023 8.26004C7.64173 8.16639 7.72274 8.05274 7.77815 7.92624C7.83355 7.79974 7.86216 7.66314 7.86216 7.52504C7.86216 7.38693 7.83355 7.25033 7.77815 7.12383C7.72274 6.99733 7.64173 6.88368 7.54023 6.79004Z" fill="#0D1B1D"/>
</svg>
