<svg width="8" height="14" viewBox="0 0 8 14" fill="none" xmlns="http://www.w3.org/2000/svg">
<path d="M7.54071 6.29004L1.88071 0.640037C1.78775 0.546308 1.67715 0.471914 1.55529 0.421145C1.43343 0.370377 1.30273 0.344238 1.17071 0.344238C1.0387 0.344238 0.907997 0.370377 0.786138 0.421145C0.664278 0.471914 0.553677 0.546308 0.460714 0.640037C0.274463 0.827399 0.169922 1.08085 0.169922 1.34504C0.169922 1.60922 0.274463 1.86267 0.460714 2.05004L5.41071 7.05004L0.460714 12C0.274463 12.1874 0.169922 12.4409 0.169922 12.705C0.169922 12.9692 0.274463 13.2227 0.460714 13.41C0.553329 13.5045 0.663774 13.5797 0.785649 13.6312C0.907525 13.6827 1.03841 13.7095 1.17071 13.71C1.30302 13.7095 1.4339 13.6827 1.55578 13.6312C1.67765 13.5797 1.7881 13.5045 1.88071 13.41L7.54071 7.76004C7.64222 7.66639 7.72323 7.55274 7.77864 7.42624C7.83404 7.29974 7.86265 7.16314 7.86265 7.02504C7.86265 6.88693 7.83404 6.75033 7.77864 6.62383C7.72323 6.49733 7.64222 6.38368 7.54071 6.29004Z" fill="#ffffff"/>
</svg>
