<svg width="20" height="20" viewBox="0 0 20 20" fill="none" xmlns="http://www.w3.org/2000/svg">
<path d="M19.955 0.857441C20.0004 0.743861 20.0116 0.619435 19.987 0.49959C19.9624 0.379745 19.9032 0.26975 19.8167 0.183242C19.7302 0.0967335 19.6202 0.0375166 19.5003 0.0129323C19.3805 -0.011652 19.256 -0.000522637 19.1425 0.0449407L0.958711 7.31869H0.957461L0.392461 7.54369C0.285448 7.58638 0.192318 7.65781 0.123355 7.7501C0.0543929 7.8424 0.0122831 7.95195 0.00167746 8.06668C-0.00892821 8.1814 0.0123829 8.29682 0.0632569 8.40019C0.114131 8.50356 0.192588 8.59086 0.289961 8.65244L0.802461 8.97744L0.803711 8.97994L7.04746 12.9524L11.02 19.1962L11.0225 19.1987L11.3475 19.7112C11.4092 19.8082 11.4966 19.8863 11.5999 19.9368C11.7032 19.9874 11.8184 20.0084 11.9329 19.9977C12.0474 19.987 12.1567 19.9449 12.2488 19.876C12.3409 19.8072 12.4123 19.7142 12.455 19.6074L19.955 0.857441V0.857441ZM17.6637 3.21994L8.29621 12.5874L8.02746 12.1649C7.97822 12.0874 7.91249 12.0217 7.83496 11.9724L7.41246 11.7037L16.78 2.33619L18.2525 1.74744L17.665 3.21994H17.6637Z" fill="#0D1B1D"/>
</svg>
