<svg width="21" height="21" viewBox="0 0 21 21" fill="none" xmlns="http://www.w3.org/2000/svg">
<path d="M18.8999 11.1614C18.7396 10.9789 18.6512 10.7443 18.6512 10.5014C18.6512 10.2585 18.7396 10.0238 18.8999 9.84136L20.1799 8.40136C20.3209 8.24403 20.4085 8.04606 20.4301 7.83587C20.4516 7.62567 20.4061 7.41405 20.2999 7.23136L18.2999 3.77136C18.1948 3.58888 18.0348 3.44424 17.8426 3.35805C17.6505 3.27186 17.4361 3.24852 17.2299 3.29136L15.3499 3.67136C15.1107 3.72079 14.8616 3.68095 14.6498 3.55936C14.4379 3.43777 14.2779 3.24284 14.1999 3.01136L13.5899 1.18136C13.5228 0.982739 13.395 0.810225 13.2245 0.688202C13.0541 0.566179 12.8495 0.500819 12.6399 0.50136H8.6399C8.42183 0.489978 8.20603 0.550286 8.02546 0.673074C7.84489 0.795862 7.70948 0.974379 7.6399 1.18136L7.0799 3.01136C7.0019 3.24284 6.84187 3.43777 6.63001 3.55936C6.41815 3.68095 6.16911 3.72079 5.9299 3.67136L3.9999 3.29136C3.80445 3.26374 3.6052 3.29458 3.42724 3.38C3.24929 3.46542 3.1006 3.60159 2.9999 3.77136L0.999896 7.23136C0.891056 7.41201 0.842118 7.62245 0.860079 7.83258C0.878039 8.04272 0.961979 8.2418 1.0999 8.40136L2.3699 9.84136C2.53022 10.0238 2.61863 10.2585 2.61863 10.5014C2.61863 10.7443 2.53022 10.9789 2.3699 11.1614L1.0999 12.6014C0.961979 12.7609 0.878039 12.96 0.860079 13.1701C0.842118 13.3803 0.891056 13.5907 0.999896 13.7714L2.9999 17.2314C3.10499 17.4138 3.26502 17.5585 3.45715 17.6447C3.64928 17.7309 3.86372 17.7542 4.0699 17.7114L5.9499 17.3314C6.18911 17.2819 6.43815 17.3218 6.65001 17.4434C6.86187 17.5649 7.0219 17.7599 7.0999 17.9914L7.7099 19.8214C7.77948 20.0283 7.91489 20.2069 8.09546 20.3296C8.27603 20.4524 8.49183 20.5127 8.7099 20.5014H12.7099C12.9195 20.5019 13.1241 20.4365 13.2945 20.3145C13.465 20.1925 13.5928 20.02 13.6599 19.8214L14.2699 17.9914C14.3479 17.7599 14.5079 17.5649 14.7198 17.4434C14.9316 17.3218 15.1807 17.2819 15.4199 17.3314L17.2999 17.7114C17.5061 17.7542 17.7205 17.7309 17.9126 17.6447C18.1048 17.5585 18.2648 17.4138 18.3699 17.2314L20.3699 13.7714C20.4761 13.5887 20.5216 13.377 20.5001 13.1669C20.4785 12.9567 20.3909 12.7587 20.2499 12.6014L18.8999 11.1614ZM17.4099 12.5014L18.2099 13.4014L16.9299 15.6214L15.7499 15.3814C15.0297 15.2341 14.2805 15.3565 13.6445 15.7252C13.0085 16.0938 12.53 16.6832 12.2999 17.3814L11.9199 18.5014H9.3599L8.9999 17.3614C8.76975 16.6632 8.29128 16.0738 7.6553 15.7052C7.01932 15.3365 6.27012 15.2141 5.5499 15.3614L4.3699 15.6014L3.0699 13.3914L3.8699 12.4914C4.36185 11.9413 4.63383 11.2293 4.63383 10.4914C4.63383 9.75343 4.36185 9.04138 3.8699 8.49136L3.0699 7.59136L4.3499 5.39136L5.5299 5.63136C6.25012 5.77858 6.99932 5.65624 7.6353 5.28756C8.27128 4.91888 8.74975 4.32952 8.9799 3.63136L9.3599 2.50136H11.9199L12.2999 3.64136C12.53 4.33952 13.0085 4.92888 13.6445 5.29756C14.2805 5.66624 15.0297 5.78858 15.7499 5.64136L16.9299 5.40136L18.2099 7.62136L17.4099 8.52136C16.9235 9.07012 16.6549 9.77804 16.6549 10.5114C16.6549 11.2447 16.9235 11.9526 17.4099 12.5014ZM10.6399 6.50136C9.84877 6.50136 9.07541 6.73596 8.41761 7.17548C7.75982 7.61501 7.24713 8.23972 6.94438 8.97063C6.64163 9.70153 6.56241 10.5058 6.71675 11.2817C6.8711 12.0576 7.25206 12.7704 7.81147 13.3298C8.37088 13.8892 9.08361 14.2702 9.85954 14.4245C10.6355 14.5788 11.4397 14.4996 12.1706 14.1969C12.9015 13.8941 13.5262 13.3814 13.9658 12.7236C14.4053 12.0658 14.6399 11.2925 14.6399 10.5014C14.6399 9.44049 14.2185 8.42308 13.4683 7.67293C12.7182 6.92279 11.7008 6.50136 10.6399 6.50136ZM10.6399 12.5014C10.2443 12.5014 9.85765 12.3841 9.52876 12.1643C9.19986 11.9445 8.94351 11.6322 8.79214 11.2667C8.64076 10.9013 8.60116 10.4991 8.67833 10.1112C8.7555 9.72322 8.94598 9.36685 9.22568 9.08715C9.50539 8.80744 9.86175 8.61696 10.2497 8.53979C10.6377 8.46262 11.0398 8.50223 11.4053 8.6536C11.7707 8.80498 12.0831 9.06132 12.3028 9.39022C12.5226 9.71912 12.6399 10.1058 12.6399 10.5014C12.6399 11.0318 12.4292 11.5405 12.0541 11.9156C11.679 12.2906 11.1703 12.5014 10.6399 12.5014Z" fill="#0D1B1D"/>
</svg>
