<svg width="27" height="28" viewBox="0 0 27 28" fill="none" xmlns="http://www.w3.org/2000/svg">
<path d="M24.5335 14.9405C24.3198 14.6972 24.2019 14.3844 24.2019 14.0605C24.2019 13.7366 24.3198 13.4238 24.5335 13.1805L26.2402 11.2605C26.4282 11.0507 26.545 10.7868 26.5738 10.5065C26.6025 10.2262 26.5417 9.94407 26.4002 9.70049L23.7335 5.08715C23.5934 4.84385 23.38 4.65099 23.1239 4.53607C22.8677 4.42115 22.5818 4.39003 22.3069 4.44715L19.8002 4.95382C19.4812 5.01973 19.1492 4.96661 18.8667 4.80449C18.5842 4.64237 18.3709 4.38247 18.2669 4.07382L17.4535 1.63382C17.3641 1.36899 17.1937 1.13898 16.9664 0.976278C16.7391 0.81358 16.4664 0.726434 16.1869 0.727155H10.8535C10.5628 0.711979 10.275 0.79239 10.0343 0.956107C9.79351 1.11982 9.61296 1.35785 9.52019 1.63382L8.77352 4.07382C8.66952 4.38247 8.45615 4.64237 8.17367 4.80449C7.89119 4.96661 7.55914 5.01973 7.24019 4.95382L4.66685 4.44715C4.40625 4.41033 4.14059 4.45145 3.90332 4.56534C3.66605 4.67923 3.46779 4.86079 3.33352 5.08715L0.666854 9.70049C0.521734 9.94135 0.456483 10.2219 0.480431 10.5021C0.504378 10.7823 0.616297 11.0477 0.800187 11.2605L2.49352 13.1805C2.70728 13.4238 2.82517 13.7366 2.82517 14.0605C2.82517 14.3844 2.70728 14.6972 2.49352 14.9405L0.800187 16.8605C0.616297 17.0732 0.504378 17.3387 0.480431 17.6189C0.456483 17.899 0.521734 18.1796 0.666854 18.4205L3.33352 23.0338C3.47365 23.2771 3.68701 23.47 3.94319 23.5849C4.19937 23.6998 4.48529 23.7309 4.76019 23.6738L7.26685 23.1672C7.58581 23.1012 7.91786 23.1544 8.20034 23.3165C8.48282 23.4786 8.69619 23.7385 8.80019 24.0472L9.61352 26.4872C9.70629 26.7631 9.88685 27.0012 10.1276 27.1649C10.3684 27.3286 10.6561 27.409 10.9469 27.3938H16.2802C16.5597 27.3945 16.8324 27.3074 17.0597 27.1447C17.287 26.982 17.4574 26.752 17.5469 26.4872L18.3602 24.0472C18.4642 23.7385 18.6776 23.4786 18.96 23.3165C19.2425 23.1544 19.5746 23.1012 19.8935 23.1672L22.4002 23.6738C22.6751 23.7309 22.961 23.6998 23.2172 23.5849C23.4734 23.47 23.6867 23.2771 23.8269 23.0338L26.4935 18.4205C26.6351 18.1769 26.6959 17.8947 26.6671 17.6145C26.6384 17.3342 26.5216 17.0703 26.3335 16.8605L24.5335 14.9405ZM22.5469 16.7272L23.6135 17.9272L21.9069 20.8872L20.3335 20.5672C19.3732 20.3709 18.3743 20.534 17.5263 21.0256C16.6783 21.5171 16.0404 22.3029 15.7335 23.2338L15.2269 24.7272H11.8135L11.3335 23.2072C11.0267 22.2763 10.3887 21.4905 9.54073 20.9989C8.69276 20.5073 7.69381 20.3442 6.73352 20.5405L5.16019 20.8605L3.42685 17.9138L4.49352 16.7138C5.14946 15.9805 5.5121 15.0311 5.5121 14.0472C5.5121 13.0632 5.14946 12.1139 4.49352 11.3805L3.42685 10.1805L5.13352 7.24715L6.70685 7.56715C7.66715 7.76345 8.66609 7.60033 9.51406 7.10875C10.362 6.61718 11 5.83137 11.3069 4.90049L11.8135 3.39382H15.2269L15.7335 4.91382C16.0404 5.8447 16.6783 6.63051 17.5263 7.12209C18.3743 7.61366 19.3732 7.77678 20.3335 7.58049L21.9069 7.26049L23.6135 10.2205L22.5469 11.4205C21.8983 12.1522 21.5401 13.0961 21.5401 14.0738C21.5401 15.0516 21.8983 15.9955 22.5469 16.7272ZM13.5202 8.72715C12.4654 8.72715 11.4342 9.03995 10.5571 9.62598C9.68008 10.212 8.9965 11.045 8.59283 12.0195C8.18916 12.994 8.08354 14.0664 8.28933 15.101C8.49512 16.1355 9.00307 17.0858 9.74895 17.8317C10.4948 18.5776 11.4451 19.0856 12.4797 19.2913C13.5143 19.4971 14.5866 19.3915 15.5612 18.9878C16.5357 18.5842 17.3687 17.9006 17.9547 17.0235C18.5407 16.1465 18.8535 15.1153 18.8535 14.0605C18.8535 12.646 18.2916 11.2894 17.2914 10.2893C16.2912 9.28906 14.9347 8.72715 13.5202 8.72715ZM13.5202 16.7272C12.9928 16.7272 12.4772 16.5708 12.0387 16.2777C11.6001 15.9847 11.2583 15.5682 11.0565 15.081C10.8547 14.5937 10.8019 14.0575 10.9048 13.5402C11.0077 13.023 11.2616 12.5478 11.6346 12.1749C12.0075 11.8019 12.4827 11.548 12.9999 11.4451C13.5172 11.3422 14.0534 11.395 14.5407 11.5968C15.0279 11.7986 15.4444 12.1404 15.7374 12.579C16.0305 13.0175 16.1869 13.5331 16.1869 14.0605C16.1869 14.7677 15.9059 15.446 15.4058 15.9461C14.9057 16.4462 14.2274 16.7272 13.5202 16.7272Z" fill="white"/>
</svg>
