<svg width="20" height="20" viewBox="0 0 20 20" fill="none" xmlns="http://www.w3.org/2000/svg">
<path d="M16.4998 3.5H12.4998C12.2346 3.5 11.9802 3.60536 11.7927 3.79289C11.6052 3.98043 11.4998 4.23478 11.4998 4.5C11.4998 4.76522 11.6052 5.01957 11.7927 5.20711C11.9802 5.39464 12.2346 5.5 12.4998 5.5H16.4998C16.765 5.5 17.0194 5.60536 17.2069 5.79289C17.3945 5.98043 17.4998 6.23478 17.4998 6.5V16.22L15.9298 14.77C15.7454 14.5973 15.5025 14.5009 15.2498 14.5H6.49982C6.2346 14.5 5.98025 14.3946 5.79271 14.2071C5.60517 14.0196 5.49982 13.7652 5.49982 13.5V12.5C5.49982 12.2348 5.39446 11.9804 5.20692 11.7929C5.01939 11.6054 4.76503 11.5 4.49982 11.5C4.2346 11.5 3.98025 11.6054 3.79271 11.7929C3.60517 11.9804 3.49982 12.2348 3.49982 12.5V13.5C3.49982 14.2956 3.81589 15.0587 4.3785 15.6213C4.9411 16.1839 5.70417 16.5 6.49982 16.5H14.8598L17.8598 19.23C18.0442 19.4027 18.2872 19.4991 18.5398 19.5C18.677 19.4985 18.8126 19.4714 18.9398 19.42C19.1187 19.3419 19.2708 19.2132 19.3774 19.0497C19.484 18.8863 19.5405 18.6952 19.5398 18.5V6.5C19.5399 6.10264 19.4609 5.70924 19.3077 5.34263C19.1544 4.97603 18.9299 4.64352 18.647 4.36441C18.3642 4.08531 18.0288 3.86517 17.6602 3.71678C17.2915 3.56839 16.8971 3.4947 16.4998 3.5ZM7.07982 10.5H9.49982C9.76503 10.5 10.0194 10.3946 10.2069 10.2071C10.3945 10.0196 10.4998 9.76522 10.4998 9.5V7.08C10.5006 6.94839 10.4754 6.81793 10.4256 6.69609C10.3758 6.57425 10.3025 6.46344 10.2098 6.37L4.62982 0.789999C4.44245 0.603748 4.189 0.499207 3.92482 0.499207C3.66063 0.499207 3.40718 0.603748 3.21982 0.789999L0.789816 3.22C0.603565 3.40736 0.499023 3.66081 0.499023 3.925C0.499023 4.18919 0.603565 4.44264 0.789816 4.63L6.36982 10.21C6.46326 10.3027 6.57407 10.376 6.69591 10.4258C6.81775 10.4755 6.94821 10.5008 7.07982 10.5ZM3.91982 2.91L8.49982 7.49V8.49H7.49982L2.90982 3.92L3.91982 2.91Z" fill="#0D1B1D"/>
</svg>
