<svg width="16" height="12" viewBox="0 0 16 12" fill="none" xmlns="http://www.w3.org/2000/svg">
<path d="M15.92 4.12C15.8724 3.99725 15.801 3.88511 15.71 3.79L12.71 0.790002C12.6168 0.696764 12.5061 0.622803 12.3842 0.572343C12.2624 0.521883 12.1319 0.495911 12 0.495911C11.7337 0.495911 11.4783 0.601699 11.29 0.790002C11.1968 0.883241 11.1228 0.993931 11.0723 1.11575C11.0219 1.23758 10.9959 1.36814 10.9959 1.5C10.9959 1.7663 11.1017 2.0217 11.29 2.21L12.59 3.5H3C2.20435 3.5 1.44129 3.81607 0.87868 4.37868C0.316071 4.94129 0 5.70435 0 6.5V10.5C0 10.7652 0.105357 11.0196 0.292893 11.2071C0.48043 11.3946 0.734784 11.5 1 11.5C1.26522 11.5 1.51957 11.3946 1.70711 11.2071C1.89464 11.0196 2 10.7652 2 10.5V6.5C2 6.23479 2.10536 5.98043 2.29289 5.7929C2.48043 5.60536 2.73478 5.5 3 5.5H12.59L11.29 6.79C11.1963 6.88297 11.1219 6.99357 11.0711 7.11543C11.0203 7.23728 10.9942 7.36799 10.9942 7.5C10.9942 7.63201 11.0203 7.76272 11.0711 7.88458C11.1219 8.00644 11.1963 8.11704 11.29 8.21C11.383 8.30373 11.4936 8.37812 11.6154 8.42889C11.7373 8.47966 11.868 8.5058 12 8.5058C12.132 8.5058 12.2627 8.47966 12.3846 8.42889C12.5064 8.37812 12.617 8.30373 12.71 8.21L15.71 5.21C15.801 5.1149 15.8724 5.00275 15.92 4.88C16.02 4.63654 16.02 4.36346 15.92 4.12Z" fill="#0D1B1D"/>
</svg>
