<svg width="61" height="60" viewBox="0 0 61 60" fill="none" xmlns="http://www.w3.org/2000/svg">
<path fill-rule="evenodd" clip-rule="evenodd" d="M0.5 30C0.5 22.0435 3.66071 14.4129 9.2868 8.7868C14.9129 3.16071 22.5435 0 30.5 0C38.4565 0 46.0871 3.16071 51.7132 8.7868C57.3393 14.4129 60.5 22.0435 60.5 30C60.5 37.9565 57.3393 45.5871 51.7132 51.2132C46.0871 56.8393 38.4565 60 30.5 60C22.5435 60 14.9129 56.8393 9.2868 51.2132C3.66071 45.5871 0.5 37.9565 0.5 30H0.5ZM28.788 42.84L46.06 21.248L42.94 18.752L28.212 37.156L17.78 28.464L15.22 31.536L28.788 42.844V42.84Z" fill="#00808B"/>
</svg>
