<svg width="22" height="17" viewBox="0 0 22 17" fill="none" xmlns="http://www.w3.org/2000/svg">
<path d="M19.6403 11.7718C20.1913 11.1429 20.4966 10.3362 20.5 9.50002C20.5 8.57176 20.1313 7.68152 19.4749 7.02514C18.8185 6.36877 17.9283 6.00002 17 6.00002C16.0717 6.00002 15.1815 6.36877 14.5251 7.02514C13.8687 7.68152 13.5 8.57176 13.5 9.50002C13.5034 10.3362 13.8087 11.1429 14.3597 11.7718C13.6397 12.2182 13.0453 12.8406 12.6324 13.5804C12.2196 14.3201 12.0019 15.1529 12 16C12 16.2652 12.1054 16.5196 12.2929 16.7071C12.4804 16.8947 12.7348 17 13 17C13.2652 17 13.5196 16.8947 13.7071 16.7071C13.8946 16.5196 14 16.2652 14 16C14 15.2044 14.3161 14.4413 14.8787 13.8787C15.4413 13.3161 16.2044 13 17 13C17.7956 13 18.5587 13.3161 19.1213 13.8787C19.6839 14.4413 20 15.2044 20 16C20 16.2652 20.1054 16.5196 20.2929 16.7071C20.4804 16.8947 20.7348 17 21 17C21.2652 17 21.5196 16.8947 21.7071 16.7071C21.8946 16.5196 22 16.2652 22 16C21.9981 15.1529 21.7804 14.3201 21.3676 13.5804C20.9547 12.8406 20.3603 12.2182 19.6403 11.7718ZM17 11C16.7033 11 16.4133 10.912 16.1666 10.7472C15.92 10.5824 15.7277 10.3481 15.6142 10.074C15.5007 9.79995 15.4709 9.49835 15.5288 9.20738C15.5867 8.91641 15.7296 8.64914 15.9393 8.43936C16.1491 8.22958 16.4164 8.08672 16.7074 8.02884C16.9983 7.97096 17.2999 8.00067 17.574 8.1142C17.8481 8.22773 18.0824 8.41999 18.2472 8.66666C18.412 8.91334 18.5 9.20335 18.5 9.50002C18.4996 9.89771 18.3414 10.279 18.0602 10.5602C17.779 10.8414 17.3977 10.9996 17 11ZM5.79327 3.70736L7.793 5.70702C7.98109 5.89173 8.23451 5.99469 8.49812 5.99349C8.76174 5.9923 9.01422 5.88705 9.20063 5.70064C9.38703 5.51424 9.49228 5.26176 9.49348 4.99814C9.49467 4.73453 9.39171 4.48111 9.207 4.29302L8.91406 4.00002H13.0859L12.7929 4.29302C12.6991 4.38565 12.6246 4.49593 12.5736 4.61749C12.5225 4.73905 12.496 4.86951 12.4956 5.00134C12.4952 5.13318 12.5209 5.26379 12.5711 5.38567C12.6214 5.50755 12.6953 5.61829 12.7885 5.71151C12.8817 5.80473 12.9925 5.8786 13.1144 5.92885C13.2362 5.97911 13.3669 6.00477 13.4987 6.00435C13.6305 6.00393 13.761 5.97745 13.8825 5.92642C14.0041 5.87539 14.1144 5.80083 14.207 5.70702L16.2067 3.70733C16.3935 3.51932 16.4984 3.26503 16.4984 2.99999C16.4984 2.73494 16.3935 2.48066 16.2067 2.29265L14.207 0.293018C14.0189 0.108308 13.7655 0.00534851 13.5019 0.00654233C13.2383 0.00773614 12.9858 0.112986 12.7994 0.299393C12.613 0.485799 12.5077 0.738278 12.5065 1.00189C12.5053 1.26551 12.6083 1.51893 12.793 1.70702L13.086 2.00002H8.91406L9.20706 1.70702C9.39262 1.5191 9.4963 1.2654 9.49547 1.0013C9.49463 0.737204 9.38934 0.484165 9.20259 0.297423C9.01585 0.110682 8.7628 0.00540789 8.49871 0.00458253C8.23461 0.00375716 7.98091 0.107448 7.793 0.293018L5.79327 2.29268C5.60645 2.48069 5.5016 2.73497 5.5016 3.00002C5.5016 3.26506 5.60645 3.51935 5.79327 3.70736ZM7.64027 11.7718C8.19131 11.1429 8.49662 10.3362 8.5 9.50002C8.5 8.57176 8.13125 7.68152 7.47487 7.02514C6.8185 6.36877 5.92826 6.00002 5 6.00002C4.07174 6.00002 3.1815 6.36877 2.52513 7.02514C1.86875 7.68152 1.5 8.57176 1.5 9.50002C1.50338 10.3362 1.8087 11.1429 2.35974 11.7718C1.63973 12.2182 1.04527 12.8406 0.63242 13.5804C0.219566 14.3201 0.00191925 15.1529 0 16C0 16.2652 0.105357 16.5196 0.292893 16.7071C0.48043 16.8947 0.734784 17 1 17C1.26522 17 1.51957 16.8947 1.70711 16.7071C1.89464 16.5196 2 16.2652 2 16C2 15.2044 2.31607 14.4413 2.87868 13.8787C3.44129 13.3161 4.20435 13 5 13C5.79565 13 6.55871 13.3161 7.12132 13.8787C7.68393 14.4413 8 15.2044 8 16C8 16.2652 8.10536 16.5196 8.29289 16.7071C8.48043 16.8947 8.73478 17 9 17C9.26522 17 9.51957 16.8947 9.70711 16.7071C9.89464 16.5196 10 16.2652 10 16C9.99808 15.1529 9.78043 14.3201 9.36758 13.5804C8.95473 12.8406 8.36027 12.2182 7.64026 11.7718H7.64027ZM5 11C4.70333 11 4.41332 10.912 4.16664 10.7472C3.91997 10.5824 3.72771 10.3481 3.61418 10.074C3.50065 9.79995 3.47094 9.49835 3.52882 9.20738C3.5867 8.91641 3.72956 8.64914 3.93934 8.43936C4.14912 8.22958 4.41639 8.08672 4.70736 8.02884C4.99834 7.97096 5.29994 8.00067 5.57403 8.1142C5.84811 8.22773 6.08238 8.41999 6.2472 8.66666C6.41203 8.91334 6.5 9.20335 6.5 9.50002C6.49957 9.89771 6.34139 10.279 6.06018 10.5602C5.77897 10.8414 5.39769 10.9996 5 11Z" fill="#0D1B1D"/>
</svg>
