<svg width="17" height="17" viewBox="0 0 17 17" fill="none" xmlns="http://www.w3.org/2000/svg">
<path d="M9.3 7.5V7.7H9.5H15.5C15.7122 7.7 15.9157 7.78429 16.0657 7.93431C16.2157 8.08434 16.3 8.28783 16.3 8.5C16.3 8.71217 16.2157 8.91566 16.0657 9.06569C15.9157 9.21571 15.7122 9.3 15.5 9.3H9.5H9.3V9.5V15.5C9.3 15.7122 9.21571 15.9157 9.06569 16.0657C8.91566 16.2157 8.71217 16.3 8.5 16.3C8.28783 16.3 8.08434 16.2157 7.93431 16.0657C7.78429 15.9157 7.7 15.7122 7.7 15.5V9.5V9.3H7.5H1.5C1.28783 9.3 1.08434 9.21571 0.934315 9.06569C0.784286 8.91566 0.7 8.71217 0.7 8.5C0.7 8.28783 0.784286 8.08434 0.934315 7.93431C1.08434 7.78429 1.28783 7.7 1.5 7.7H7.5H7.7V7.5V1.5C7.7 1.28783 7.78429 1.08434 7.93431 0.934315C8.08434 0.784286 8.28783 0.7 8.5 0.7C8.71217 0.7 8.91566 0.784286 9.06569 0.934315C9.21571 1.08434 9.3 1.28783 9.3 1.5V7.5Z" fill="white" stroke="#00808B" stroke-width="0.4"/>
</svg>
