<svg width="32" height="32" viewBox="0 0 32 32" fill="none" xmlns="http://www.w3.org/2000/svg">
<path d="M28.4003 13.44C28.0257 12.9902 27.5569 12.6281 27.027 12.3793C26.4971 12.1305 25.9191 12.001 25.3337 12H19.2537L20.0003 10.0934C20.3109 9.25853 20.4143 8.36083 20.3017 7.47725C20.1892 6.59367 19.8639 5.75059 19.3539 5.02032C18.8439 4.29006 18.1644 3.69441 17.3736 3.28448C16.5828 2.87454 15.7044 2.66255 14.8137 2.66669C14.5572 2.66722 14.3063 2.74172 14.0911 2.88125C13.8759 3.02078 13.7055 3.21942 13.6003 3.45335L9.80033 12H6.66699C5.60613 12 4.58871 12.4214 3.83857 13.1716C3.08842 13.9217 2.66699 14.9392 2.66699 16V25.3334C2.66699 26.3942 3.08842 27.4116 3.83857 28.1618C4.58871 28.9119 5.60613 29.3334 6.66699 29.3334H23.6403C24.5761 29.333 25.4821 29.0047 26.2008 28.4054C26.9194 27.8061 27.4052 26.9738 27.5737 26.0534L29.267 16.72C29.3717 16.1432 29.3484 15.5504 29.1986 14.9836C29.0489 14.4168 28.7763 13.8898 28.4003 13.44ZM9.33366 26.6667H6.66699C6.31337 26.6667 5.97423 26.5262 5.72418 26.2762C5.47413 26.0261 5.33366 25.687 5.33366 25.3334V16C5.33366 15.6464 5.47413 15.3073 5.72418 15.0572C5.97423 14.8072 6.31337 14.6667 6.66699 14.6667H9.33366V26.6667ZM26.667 16.24L24.9737 25.5734C24.9169 25.884 24.7517 26.1643 24.5075 26.3646C24.2633 26.5648 23.956 26.6718 23.6403 26.6667H12.0003V13.6134L15.627 5.45335C16.0003 5.56219 16.347 5.74723 16.6452 5.9968C16.9434 6.24637 17.1866 6.55504 17.3595 6.90334C17.5324 7.25164 17.6312 7.63201 17.6497 8.02042C17.6682 8.40883 17.606 8.79686 17.467 9.16002L16.7603 11.0667C16.6097 11.4697 16.5589 11.9031 16.6122 12.3301C16.6654 12.757 16.8212 13.1647 17.0661 13.5183C17.3111 13.872 17.6379 14.1612 18.0189 14.3611C18.3998 14.5611 18.8234 14.6659 19.2537 14.6667H25.3337C25.5295 14.6664 25.7231 14.7092 25.9005 14.7922C26.078 14.8751 26.235 14.9962 26.3603 15.1467C26.4888 15.2951 26.5829 15.4701 26.6359 15.6591C26.6889 15.8481 26.6995 16.0464 26.667 16.24Z" fill="#00808B"/>
</svg>
