<svg width="24" height="12" viewBox="0 0 24 12" fill="none" xmlns="http://www.w3.org/2000/svg">
<path d="M23.3284 0.50501C23.22 0.39566 23.0909 0.308867 22.9488 0.249637C22.8066 0.190407 22.6541 0.159912 22.5001 0.159912C22.3461 0.159912 22.1936 0.190407 22.0514 0.249637C21.9092 0.308867 21.7802 0.39566 21.6718 0.50501L14.3334 7.85501L9.32842 2.83834C9.21997 2.72899 9.09093 2.6422 8.94876 2.58297C8.80659 2.52374 8.65411 2.49325 8.50009 2.49325C8.34608 2.49325 8.19359 2.52374 8.05142 2.58297C7.90925 2.6422 7.78021 2.72899 7.67176 2.83834L0.671758 9.83834C0.562408 9.9468 0.475615 10.0758 0.416385 10.218C0.357155 10.3602 0.32666 10.5127 0.32666 10.6667C0.32666 10.8207 0.357155 10.9732 0.416385 11.1153C0.475615 11.2575 0.562408 11.3866 0.671758 11.495C0.780215 11.6044 0.90925 11.6912 1.05142 11.7504C1.19359 11.8096 1.34608 11.8401 1.50009 11.8401C1.65411 11.8401 1.80659 11.8096 1.94876 11.7504C2.09093 11.6912 2.21997 11.6044 2.32842 11.495L8.50009 5.31168L13.5051 10.3283C13.6135 10.4377 13.7426 10.5245 13.8848 10.5837C14.0269 10.6429 14.1794 10.6734 14.3334 10.6734C14.4874 10.6734 14.6399 10.6429 14.7821 10.5837C14.9243 10.5245 15.0533 10.4377 15.1618 10.3283L23.3284 2.16168C23.4378 2.05322 23.5246 1.92419 23.5838 1.78202C23.643 1.63985 23.6735 1.48736 23.6735 1.33334C23.6735 1.17933 23.643 1.02684 23.5838 0.884671C23.5246 0.742501 23.4378 0.613467 23.3284 0.50501Z" fill="white"/>
</svg>
