<svg width="20" height="11" viewBox="0 0 20 11" fill="none" xmlns="http://www.w3.org/2000/svg">
<path d="M18.9009 1.18521C18.8157 1.09929 18.7143 1.0311 18.6026 0.984561C18.4909 0.938023 18.3711 0.914062 18.2501 0.914062C18.1291 0.914062 18.0093 0.938023 17.8976 0.984561C17.7859 1.0311 17.6845 1.09929 17.5993 1.18521L11.8334 6.96021L7.90094 3.01854C7.81572 2.93263 7.71434 2.86443 7.60264 2.81789C7.49093 2.77136 7.37112 2.7474 7.25011 2.7474C7.1291 2.7474 7.00928 2.77136 6.89758 2.81789C6.78587 2.86443 6.68449 2.93263 6.59927 3.01854L1.09927 8.51854C1.01336 8.60376 0.945161 8.70514 0.898623 8.81685C0.852085 8.92855 0.828125 9.04837 0.828125 9.16938C0.828125 9.29039 0.852085 9.4102 0.898623 9.52191C0.945161 9.63361 1.01336 9.73499 1.09927 9.82021C1.18449 9.90613 1.28587 9.97432 1.39758 10.0209C1.50928 10.0674 1.6291 10.0914 1.75011 10.0914C1.87112 10.0914 1.99093 10.0674 2.10264 10.0209C2.21434 9.97432 2.31572 9.90613 2.40094 9.82021L7.25011 4.96188L11.1826 8.90354C11.2678 8.98946 11.3692 9.05766 11.4809 9.10419C11.5926 9.15073 11.7124 9.17469 11.8334 9.17469C11.9545 9.17469 12.0743 9.15073 12.186 9.10419C12.2977 9.05766 12.3991 8.98946 12.4843 8.90354L18.9009 2.48688C18.9869 2.40166 19.0551 2.30028 19.1016 2.18857C19.1481 2.07687 19.1721 1.95706 19.1721 1.83604C19.1721 1.71503 19.1481 1.59522 19.1016 1.48352C19.0551 1.37181 18.9869 1.27043 18.9009 1.18521Z" fill="#0D1B1D"/>
</svg>
