<svg width="20" height="21" viewBox="0 0 20 21" fill="none" xmlns="http://www.w3.org/2000/svg">
<path d="M10.71 6.79C10.6149 6.69896 10.5028 6.62759 10.38 6.58C10.1365 6.47998 9.86347 6.47998 9.62 6.58C9.49725 6.62759 9.38511 6.69896 9.29 6.79L6.29 9.79C6.1017 9.9783 5.99591 10.2337 5.99591 10.5C5.99591 10.7663 6.1017 11.0217 6.29 11.21C6.47831 11.3983 6.7337 11.5041 7 11.5041C7.26631 11.5041 7.5217 11.3983 7.71 11.21L9 9.91V13.5C9 13.7652 9.10536 14.0196 9.2929 14.2071C9.48043 14.3946 9.73479 14.5 10 14.5C10.2652 14.5 10.5196 14.3946 10.7071 14.2071C10.8946 14.0196 11 13.7652 11 13.5V9.91L12.29 11.21C12.383 11.3037 12.4936 11.3781 12.6154 11.4289C12.7373 11.4797 12.868 11.5058 13 11.5058C13.132 11.5058 13.2627 11.4797 13.3846 11.4289C13.5064 11.3781 13.617 11.3037 13.71 11.21C13.8037 11.117 13.8781 11.0064 13.9289 10.8846C13.9797 10.7627 14.0058 10.632 14.0058 10.5C14.0058 10.368 13.9797 10.2373 13.9289 10.1154C13.8781 9.99356 13.8037 9.88296 13.71 9.79L10.71 6.79ZM10 0.5C8.02219 0.5 6.08879 1.08649 4.4443 2.1853C2.79981 3.28412 1.51809 4.8459 0.761209 6.67317C0.00433284 8.50043 -0.193701 10.5111 0.192152 12.4509C0.578004 14.3907 1.53041 16.1725 2.92894 17.5711C4.32746 18.9696 6.10929 19.922 8.0491 20.3079C9.98891 20.6937 11.9996 20.4957 13.8268 19.7388C15.6541 18.9819 17.2159 17.7002 18.3147 16.0557C19.4135 14.4112 20 12.4778 20 10.5C20 9.18678 19.7413 7.88642 19.2388 6.67317C18.7363 5.45991 17.9997 4.35752 17.0711 3.42893C16.1425 2.50035 15.0401 1.76375 13.8268 1.2612C12.6136 0.758658 11.3132 0.5 10 0.5ZM10 18.5C8.41775 18.5 6.87104 18.0308 5.55544 17.1518C4.23985 16.2727 3.21447 15.0233 2.60897 13.5615C2.00347 12.0997 1.84504 10.4911 2.15372 8.93928C2.4624 7.38743 3.22433 5.96197 4.34315 4.84315C5.46197 3.72433 6.88743 2.9624 8.43928 2.65372C9.99113 2.34504 11.5997 2.50346 13.0615 3.10896C14.5233 3.71447 15.7727 4.73984 16.6518 6.05544C17.5308 7.37103 18 8.91775 18 10.5C18 12.6217 17.1572 14.6566 15.6569 16.1569C14.1566 17.6571 12.1217 18.5 10 18.5Z" fill="#907328"/>
</svg>
