<svg width="30" height="24" viewBox="0 0 30 24" fill="none" xmlns="http://www.w3.org/2000/svg">
<path d="M12.3 12.22C12.8336 11.7581 13.2616 11.1869 13.5549 10.545C13.8482 9.90316 14 9.20571 14 8.5C14 7.17392 13.4732 5.90215 12.5355 4.96447C11.5979 4.02678 10.3261 3.5 9 3.5C7.67392 3.5 6.40215 4.02678 5.46447 4.96447C4.52678 5.90215 4 7.17392 4 8.5C3.99999 9.20571 4.1518 9.90316 4.44513 10.545C4.73845 11.1869 5.16642 11.7581 5.7 12.22C4.30014 12.8539 3.11247 13.8775 2.27898 15.1685C1.4455 16.4596 1.00147 17.9633 1 19.5C1 19.7652 1.10536 20.0196 1.29289 20.2071C1.48043 20.3946 1.73478 20.5 2 20.5C2.26522 20.5 2.51957 20.3946 2.70711 20.2071C2.89464 20.0196 3 19.7652 3 19.5C3 17.9087 3.63214 16.3826 4.75736 15.2574C5.88258 14.1321 7.4087 13.5 9 13.5C10.5913 13.5 12.1174 14.1321 13.2426 15.2574C14.3679 16.3826 15 17.9087 15 19.5C15 19.7652 15.1054 20.0196 15.2929 20.2071C15.4804 20.3946 15.7348 20.5 16 20.5C16.2652 20.5 16.5196 20.3946 16.7071 20.2071C16.8946 20.0196 17 19.7652 17 19.5C16.9985 17.9633 16.5545 16.4596 15.721 15.1685C14.8875 13.8775 13.6999 12.8539 12.3 12.22ZM9 11.5C8.40666 11.5 7.82664 11.3241 7.33329 10.9944C6.83994 10.6648 6.45542 10.1962 6.22836 9.64805C6.0013 9.09987 5.94189 8.49667 6.05764 7.91473C6.1734 7.33279 6.45912 6.79824 6.87868 6.37868C7.29824 5.95912 7.83279 5.6734 8.41473 5.55764C8.99667 5.44189 9.59987 5.5013 10.1481 5.72836C10.6962 5.95542 11.1648 6.33994 11.4944 6.83329C11.8241 7.32664 12 7.90666 12 8.5C12 9.29565 11.6839 10.0587 11.1213 10.6213C10.5587 11.1839 9.79565 11.5 9 11.5ZM18.74 11.82C19.38 11.0993 19.798 10.2091 19.9438 9.25634C20.0896 8.30362 19.9569 7.32907 19.5618 6.45C19.1666 5.57093 18.5258 4.8248 17.7165 4.30142C16.9071 3.77805 15.9638 3.49974 15 3.5C14.7348 3.5 14.4804 3.60536 14.2929 3.79289C14.1054 3.98043 14 4.23478 14 4.5C14 4.76522 14.1054 5.01957 14.2929 5.20711C14.4804 5.39464 14.7348 5.5 15 5.5C15.7956 5.5 16.5587 5.81607 17.1213 6.37868C17.6839 6.94129 18 7.70435 18 8.5C17.9986 9.02524 17.8593 9.5409 17.5961 9.99542C17.3328 10.4499 16.9549 10.8274 16.5 11.09C16.3517 11.1755 16.2279 11.2977 16.1404 11.4447C16.0528 11.5918 16.0045 11.7589 16 11.93C15.9958 12.0998 16.0349 12.2678 16.1137 12.4183C16.1924 12.5687 16.3081 12.6967 16.45 12.79L16.84 13.05L16.97 13.12C18.1754 13.6917 19.1923 14.596 19.901 15.7263C20.6096 16.8566 20.9805 18.1659 20.97 19.5C20.97 19.7652 21.0754 20.0196 21.2629 20.2071C21.4504 20.3946 21.7048 20.5 21.97 20.5C22.2352 20.5 22.4896 20.3946 22.6771 20.2071C22.8646 20.0196 22.97 19.7652 22.97 19.5C22.9782 17.9654 22.5938 16.4543 21.8535 15.1101C21.1131 13.7659 20.0413 12.6333 18.74 11.82Z" fill="#0D1B1D"/>
<path d="M22.8864 14.1136C22.8275 14.0549 22.7807 13.9852 22.7487 13.9085C22.7165 13.8313 22.7 13.7486 22.7 13.665C22.7 13.5814 22.7165 13.4987 22.7487 13.4216C22.7808 13.3445 22.8278 13.2746 22.8869 13.2159C22.887 13.2157 22.8872 13.2156 22.8873 13.2155L24.1059 11.9997L22.8866 10.7833L22.8864 10.783C22.7674 10.664 22.7006 10.5027 22.7006 10.3344C22.7006 10.1662 22.7674 10.0048 22.8864 9.88582C23.0054 9.76684 23.1667 9.7 23.335 9.7C23.5032 9.7 23.6646 9.76684 23.7836 9.88582L23.7838 9.88606L25.0003 11.1053L26.2167 9.88606L26.217 9.88582C26.336 9.76684 26.4973 9.7 26.6656 9.7C26.8338 9.7 26.9952 9.76684 27.1142 9.88582C27.2332 10.0048 27.3 10.1662 27.3 10.3344C27.3 10.5027 27.2332 10.664 27.1142 10.783L27.1139 10.7833L25.8947 11.9997L27.1133 13.2155L26.902 13.4285M22.8864 14.1136C22.8861 14.1133 22.8858 14.113 22.8855 14.1127L23.0985 13.9015L22.8873 14.1145C22.887 14.1142 22.8867 14.1139 22.8864 14.1136ZM22.8864 14.1136C22.9451 14.1725 23.0148 14.2193 23.0915 14.2513C23.1687 14.2835 23.2514 14.3 23.335 14.3C23.4186 14.3 23.5013 14.2835 23.5784 14.2513C23.6554 14.2192 23.7253 14.1723 23.7841 14.1131L23.7838 14.1134L23.5715 13.9015L23.7845 14.1127L25.0003 12.8941M25.0003 12.8941L26.2161 14.1127L26.4291 13.9015M25.0003 12.8941L25.2122 12.6817L26.4291 13.9015M25.0003 12.8941L24.7884 12.6817L25.6823 12.2116L26.902 13.4285M26.4291 13.9015L26.2167 14.1134L26.2165 14.1132C26.2753 14.1723 26.3452 14.2193 26.4221 14.2513C26.4993 14.2835 26.582 14.3 26.6656 14.3C26.7491 14.3 26.8319 14.2835 26.909 14.2513C26.9858 14.2193 27.0555 14.1725 27.1142 14.1136C27.1731 14.0549 27.2199 13.9852 27.2519 13.9085C27.284 13.8313 27.3006 13.7486 27.3006 13.665C27.3006 13.5814 27.284 13.4987 27.2519 13.4216C27.2198 13.3445 27.1728 13.2746 27.1136 13.2159L27.1139 13.2162L26.902 13.4285M26.4291 13.9015C26.4601 13.9327 26.4969 13.9575 26.5375 13.9744C26.5781 13.9913 26.6216 14 26.6656 14C26.7095 14 26.7531 13.9913 26.7937 13.9744C26.8343 13.9575 26.8711 13.9327 26.902 13.9015C26.9333 13.8705 26.958 13.8337 26.975 13.7931C26.9919 13.7525 27.0006 13.709 27.0006 13.665C27.0006 13.621 26.9919 13.5775 26.975 13.5369C26.958 13.4963 26.9333 13.4595 26.902 13.4285" fill="#0D1B1D" stroke="#0D1B1D" stroke-width="0.6"/>
</svg>
