<svg width="20" height="14" viewBox="0 0 20 14" fill="none" xmlns="http://www.w3.org/2000/svg">
<path d="M19.53 1.34167C19.378 1.23927 19.2055 1.18536 19.03 1.18536C18.8545 1.18536 18.682 1.23927 18.53 1.34167L15 3.37167C14.9715 2.46583 14.6429 1.60822 14.0834 0.979346C13.5238 0.350472 12.777 -0.000608737 12 7.9235e-07H3C2.20435 7.9235e-07 1.44129 0.36875 0.87868 1.02513C0.316071 1.6815 0 2.57174 0 3.5V10.5C0 11.4283 0.316071 12.3185 0.87868 12.9749C1.44129 13.6313 2.20435 14 3 14H12C12.777 14.0006 13.5238 13.6495 14.0834 13.0207C14.6429 12.3918 14.9715 11.5342 15 10.6283L18.56 12.705C18.6963 12.7865 18.8468 12.8304 19 12.8333C19.1872 12.834 19.3709 12.7734 19.53 12.6583C19.6741 12.5533 19.7929 12.4071 19.8751 12.2335C19.9574 12.06 20.0003 11.8649 20 11.6667V2.33333C20.0003 2.13507 19.9574 1.93997 19.8751 1.76646C19.7929 1.59295 19.6741 1.44675 19.53 1.34167ZM13 10.5C13 10.8094 12.8946 11.1062 12.7071 11.325C12.5196 11.5438 12.2652 11.6667 12 11.6667H3C2.73478 11.6667 2.48043 11.5438 2.29289 11.325C2.10536 11.1062 2 10.8094 2 10.5V3.5C2 3.19058 2.10536 2.89384 2.29289 2.67504C2.48043 2.45625 2.73478 2.33333 3 2.33333H12C12.2652 2.33333 12.5196 2.45625 12.7071 2.67504C12.8946 2.89384 13 3.19058 13 3.5V10.5ZM18 9.77667L15 8.02667V5.97333L18 4.22333V9.77667Z" fill="#00808B"/>
</svg>
