<svg width="64" height="68" viewBox="0 0 64 68" fill="none" xmlns="http://www.w3.org/2000/svg">
<path d="M3.7939 53.1648L3.79355 53.1643C3.57942 52.8649 3.55477 52.4979 3.65526 52.1184L3.7939 53.1648ZM3.7939 53.1648C4.08352 53.568 4.64236 53.7571 5.22301 53.7571L46.8843 53.7581C47.5915 53.7581 48.3216 53.4826 48.91 53.0694C49.4958 52.6579 49.9793 52.0825 50.1474 51.4463L58.0059 21.692L58.1053 21.3154H57.7158H12.0224H11.7913L11.7323 21.5388L3.65531 52.1182L3.7939 53.1648ZM17.052 12.9487L17.052 12.9488C17.4474 14.9369 19.1219 16.4564 21.1481 16.4564H22.0871C24.1136 16.4564 25.7882 14.937 26.1832 12.9488C26.241 12.6577 26.2735 12.3554 26.2735 12.0441V11.0256H42.0013L42.0016 11.3561V11.3564V12.0441C42.0016 12.3549 42.034 12.6572 42.0919 12.9487L42.0919 12.9488C42.4872 14.9369 44.1618 16.4564 46.188 16.4564H47.1269C49.1534 16.4564 50.8281 14.937 51.223 12.9488C51.2809 12.6577 51.3134 12.3554 51.3134 12.0441V11.0256H57.9233H57.9237C60.5413 11.0256 62.6995 13.2843 62.6995 16.0969L62.7 58.736C62.7 61.5485 60.5418 63.8073 57.9242 63.8073H14.9887C12.3712 63.8073 10.213 61.5485 10.213 58.736V56.527V56.227H9.91296H5.22306C3.8517 56.227 2.67354 55.6516 1.97062 54.6707L1.97057 54.6706C1.33343 53.782 1.13467 52.6091 1.44163 51.4454C1.44164 51.4454 1.44165 51.4454 1.44166 51.4453L10.203 18.2766L10.213 18.239V18.2V16.0969C10.213 13.2843 12.3712 11.0256 14.9888 11.0256H16.9614L16.9617 11.3561V11.3564V12.0441C16.9617 12.3549 16.9942 12.6572 17.052 12.9487ZM12.8142 56.2269H12.5142V56.5269V58.7358C12.5142 60.154 13.6082 61.3373 14.9891 61.3373H57.9233C59.2338 61.3373 60.2859 60.2721 60.3898 58.9509L60.3989 58.9476V58.7356V23.9995L59.8089 23.9229L52.3613 52.1189C51.7556 54.41 49.3454 56.2269 46.8841 56.2269H12.8142Z" fill="#00808B" stroke="white" stroke-width="0.6"/>
<path d="M19.9047 6.5791C19.9047 5.77076 20.5141 5.20742 21.1473 5.20742H22.0862C22.7194 5.20742 23.3288 5.77074 23.3288 6.5791V12.0444C23.3288 12.8527 22.7194 13.4161 22.0862 13.4161H21.1473C20.5141 13.4161 19.9047 12.8528 19.9047 12.0444V6.5791Z" fill="#00808B" stroke="white" stroke-width="1.95"/>
<path d="M46.1878 5.20742H47.1267C47.7599 5.20742 48.3693 5.77074 48.3693 6.5791V12.0444C48.3693 12.8527 47.7599 13.4161 47.1267 13.4161H46.1878C45.5546 13.4161 44.9452 12.8528 44.9452 12.0444V6.5791C44.9452 5.77076 45.5546 5.20742 46.1878 5.20742Z" fill="#00808B" stroke="white" stroke-width="1.95"/>
</svg>
