<svg width="10" height="10" viewBox="0 0 10 10" fill="none" xmlns="http://www.w3.org/2000/svg">
<path d="M9.13937 8.31476L6.06012 5.03326L9.34162 1.95401C9.48667 1.8179 9.57171 1.62974 9.57804 1.43093C9.58436 1.23212 9.51144 1.03894 9.37533 0.893887C9.23922 0.748836 9.05106 0.663795 8.85225 0.657474C8.65344 0.651152 8.46026 0.724067 8.31521 0.860178L5.03371 3.93943L1.95446 0.657926C1.81835 0.512875 1.63019 0.427835 1.43138 0.421513C1.23257 0.415192 1.03939 0.488107 0.894337 0.624218C0.749285 0.760329 0.664245 0.948487 0.657924 1.1473C0.651602 1.34611 0.724517 1.53929 0.860628 1.68434L3.93988 4.96584L0.658376 8.04509C0.513325 8.1812 0.428284 8.36936 0.421963 8.56817C0.415641 8.76698 0.488557 8.96016 0.624668 9.10521C0.760779 9.25026 0.948936 9.3353 1.14775 9.34163C1.34656 9.34795 1.53974 9.27503 1.68479 9.13892L4.96629 6.05967L8.04554 9.34117C8.18165 9.48622 8.36981 9.57126 8.56862 9.57759C8.76743 9.58391 8.96061 9.51099 9.10566 9.37488C9.25071 9.23877 9.33575 9.05061 9.34208 8.8518C9.3484 8.65299 9.27548 8.45981 9.13937 8.31476Z" fill="white"/>
</svg>
