<svg width="18" height="18" viewBox="0 0 18 18" fill="none" xmlns="http://www.w3.org/2000/svg">
<path d="M12.7062 3.51835L14.4816 5.29292M13.8479 1.95502L9.04729 6.75566C8.79924 7.00336 8.63008 7.31895 8.56111 7.66264L8.11768 9.88232L10.3374 9.43805C10.681 9.36931 10.9962 9.20082 11.2443 8.9527L16.045 4.15207C16.1892 4.00781 16.3037 3.83654 16.3817 3.64806C16.4598 3.45958 16.5 3.25756 16.5 3.05354C16.5 2.84953 16.4598 2.64751 16.3817 2.45903C16.3037 2.27054 16.1892 2.09928 16.045 1.95502C15.9007 1.81076 15.7294 1.69633 15.541 1.61826C15.3525 1.54018 15.1505 1.5 14.9464 1.5C14.7424 1.5 14.5404 1.54018 14.3519 1.61826C14.1634 1.69633 13.9922 1.81076 13.8479 1.95502V1.95502Z" stroke="#0D1B1D" stroke-width="2.01179" stroke-linecap="round" stroke-linejoin="round"/>
<path d="M14.8237 11.5582V14.073C14.8237 14.5176 14.6471 14.944 14.3327 15.2584C14.0183 15.5728 13.5918 15.7495 13.1472 15.7495H3.92649C3.48186 15.7495 3.05544 15.5728 2.74103 15.2584C2.42663 14.944 2.25 14.5176 2.25 14.073V4.85227C2.25 4.40764 2.42663 3.98122 2.74103 3.66681C3.05544 3.35241 3.48186 3.17578 3.92649 3.17578H6.44123" stroke="#0D1B1D" stroke-width="2.01179" stroke-linecap="round" stroke-linejoin="round"/>
</svg>
