<svg width="18" height="18" viewBox="0 0 18 18" fill="none" xmlns="http://www.w3.org/2000/svg">
<path d="M8.74156 3.46006C9.98824 3.44001 11.1928 3.91088 12.0954 4.77106L14.5898 2.27674C13.0072 0.791602 10.9117 -0.0240128 8.74156 0.000538615C7.12175 0.000279507 5.53377 0.450404 4.15504 1.30062C2.7763 2.15084 1.66112 3.36766 0.934082 4.81514L3.84032 7.06854C4.17695 6.02985 4.83098 5.12294 5.71026 4.47558C6.58954 3.82822 7.64976 3.47304 8.74156 3.46006Z" fill="#EA4335"/>
<path d="M17.1101 8.94C17.1073 8.38497 17.061 7.83101 16.9717 7.2832H8.7417V10.5679H13.4537C13.3516 11.0974 13.1452 11.6013 12.8464 12.0501C12.5476 12.499 12.1624 12.8839 11.7133 13.1823L14.5253 15.3673C15.3798 14.535 16.051 13.5333 16.496 12.4265C16.941 11.3197 17.1499 10.1322 17.1093 8.94H17.1101Z" fill="#4285F4"/>
<path d="M3.83672 10.4119C3.65557 9.87293 3.56216 9.3084 3.56008 8.73985C3.56038 8.17115 3.65383 7.60634 3.83672 7.06785L0.930481 4.81445C0.318636 6.03266 0 7.37701 0 8.74023C0 10.1035 0.318636 11.4478 0.930481 12.666L3.83672 10.4119Z" fill="#FBBC05"/>
<path d="M8.74194 17.48C10.8706 17.5415 12.9417 16.7842 14.5286 15.3642L11.7166 13.1792C10.832 13.7489 9.79685 14.0401 8.74498 14.0152C7.65251 14.0025 6.59149 13.6477 5.71111 13.0007C4.83073 12.3537 4.17527 11.447 3.8369 10.4082L0.930664 12.6624C1.65799 14.1107 2.77368 15.3282 4.15309 16.1789C5.53249 17.0297 7.12128 17.4802 8.74194 17.48Z" fill="#34A853"/>
</svg>
