<svg width="20" height="20" viewBox="0 0 20 20" fill="none" xmlns="http://www.w3.org/2000/svg">
<path d="M9.11649 5.06747C9.4088 5.02267 9.70411 5.00038 9.99983 5.00081C12.6498 5.00081 15.1415 6.90914 16.5915 10.0008C16.3697 10.4713 16.1193 10.9277 15.8415 11.3675C15.7533 11.504 15.707 11.6633 15.7082 11.8258C15.71 12.0077 15.7713 12.1839 15.8827 12.3277C15.9941 12.4715 16.1495 12.5748 16.3251 12.6221C16.5008 12.6693 16.687 12.6577 16.8555 12.5892C17.024 12.5207 17.1654 12.3989 17.2582 12.2425C17.6464 11.6324 17.9837 10.9913 18.2665 10.3258C18.3112 10.2218 18.3343 10.1098 18.3343 9.99664C18.3343 9.88345 18.3112 9.77145 18.2665 9.66747C16.5832 5.75914 13.4165 3.33414 9.99983 3.33414C9.60872 3.33217 9.21823 3.36564 8.83316 3.43414C8.72373 3.45274 8.61903 3.49272 8.52504 3.55179C8.43106 3.61085 8.34963 3.68785 8.2854 3.77839C8.22117 3.86893 8.17541 3.97123 8.15072 4.07945C8.12602 4.18768 8.12289 4.2997 8.1415 4.40914C8.1601 4.51857 8.20008 4.62327 8.25914 4.71726C8.31821 4.81124 8.39521 4.89267 8.48575 4.9569C8.57628 5.02113 8.67858 5.06689 8.78681 5.09159C8.89503 5.11628 9.00706 5.11941 9.11649 5.10081V5.06747ZM3.0915 1.90914C3.0138 1.83144 2.92155 1.76981 2.82004 1.72776C2.71852 1.68571 2.60971 1.66406 2.49983 1.66406C2.38995 1.66406 2.28114 1.68571 2.17962 1.72776C2.0781 1.76981 1.98586 1.83144 1.90816 1.90914C1.75124 2.06606 1.66309 2.27889 1.66309 2.50081C1.66309 2.72272 1.75124 2.93555 1.90816 3.09247L4.4915 5.66747C3.31281 6.80208 2.37471 8.16246 1.73316 9.66747C1.68728 9.77261 1.66359 9.88609 1.66359 10.0008C1.66359 10.1155 1.68728 10.229 1.73316 10.3341C3.4165 14.2425 6.58316 16.6675 9.99983 16.6675C11.4974 16.6571 12.9596 16.2112 14.2082 15.3841L16.9082 18.0925C16.9856 18.1706 17.0778 18.2326 17.1793 18.2749C17.2809 18.3172 17.3898 18.339 17.4998 18.339C17.6098 18.339 17.7188 18.3172 17.8203 18.2749C17.9219 18.2326 18.014 18.1706 18.0915 18.0925C18.1696 18.015 18.2316 17.9228 18.2739 17.8213C18.3162 17.7197 18.338 17.6108 18.338 17.5008C18.338 17.3908 18.3162 17.2819 18.2739 17.1803C18.2316 17.0788 18.1696 16.9866 18.0915 16.9091L3.0915 1.90914ZM8.39149 9.56747L10.4332 11.6091C10.2923 11.6495 10.1463 11.6692 9.99983 11.6675C9.5578 11.6675 9.13388 11.4919 8.82132 11.1793C8.50876 10.8668 8.33316 10.4428 8.33316 10.0008C8.33146 9.85429 8.35111 9.70832 8.39149 9.56747ZM9.99983 15.0008C7.34983 15.0008 4.85816 13.0925 3.4165 10.0008C3.9549 8.81226 4.71906 7.73962 5.6665 6.84247L7.1415 8.33414C6.79503 8.96647 6.66295 9.69409 6.76504 10.4079C6.86714 11.1216 7.19793 11.783 7.70777 12.2929C8.21761 12.8027 8.87902 13.1335 9.59278 13.2356C10.3065 13.3377 11.0342 13.2056 11.6665 12.8591L12.9915 14.1675C12.0841 14.7015 11.0527 14.9888 9.99983 15.0008Z" fill="#465D61"/>
</svg>
