<svg width="208" height="39" viewBox="0 0 208 39" fill="none" xmlns="http://www.w3.org/2000/svg">
<path d="M44.616 30L37.096 7.6H41.896L47.368 24.816L52.808 7.6H57.64L50.088 30H44.616ZM60.0547 23.696C60.6094 25.7013 62.1134 26.704 64.5667 26.704C66.1454 26.704 67.3401 26.1707 68.1508 25.104L71.4788 27.024C69.9001 29.3067 67.5747 30.448 64.5027 30.448C61.8574 30.448 59.7347 29.648 58.1347 28.048C56.5347 26.448 55.7347 24.432 55.7347 22C55.7347 19.5893 56.5241 17.584 58.1027 15.984C59.6814 14.3627 61.7081 13.552 64.1827 13.552C66.5294 13.552 68.4601 14.3627 69.9747 15.984C71.5107 17.6053 72.2787 19.6107 72.2787 22C72.2787 22.5333 72.2254 23.0987 72.1187 23.696H60.0547ZM59.9907 20.496H68.1508C67.9161 19.408 67.4254 18.5973 66.6788 18.064C65.9534 17.5307 65.1214 17.264 64.1827 17.264C63.0734 17.264 62.1561 17.552 61.4307 18.128C60.7054 18.6827 60.2254 19.472 59.9907 20.496ZM78.3435 18.544C78.3435 18.9707 78.6208 19.3227 79.1755 19.6C79.7515 19.856 80.4448 20.0907 81.2555 20.304C82.0662 20.496 82.8768 20.752 83.6875 21.072C84.4982 21.3707 85.1808 21.8827 85.7355 22.608C86.3115 23.3333 86.5995 24.24 86.5995 25.328C86.5995 26.9707 85.9808 28.24 84.7435 29.136C83.5275 30.0107 82.0022 30.448 80.1675 30.448C76.8822 30.448 74.6422 29.1787 73.4475 26.64L77.0315 24.624C77.5008 26.0107 78.5462 26.704 80.1675 26.704C81.6395 26.704 82.3755 26.2453 82.3755 25.328C82.3755 24.9013 82.0875 24.56 81.5115 24.304C80.9568 24.0267 80.2742 23.7813 79.4635 23.568C78.6528 23.3547 77.8422 23.088 77.0315 22.768C76.2208 22.448 75.5275 21.9467 74.9515 21.264C74.3968 20.56 74.1195 19.6853 74.1195 18.64C74.1195 17.0613 74.6955 15.824 75.8475 14.928C77.0208 14.0107 78.4715 13.552 80.1995 13.552C81.5008 13.552 82.6848 13.8507 83.7515 14.448C84.8182 15.024 85.6608 15.856 86.2795 16.944L82.7595 18.864C82.2475 17.776 81.3942 17.232 80.1995 17.232C79.6662 17.232 79.2182 17.3493 78.8555 17.584C78.5142 17.8187 78.3435 18.1387 78.3435 18.544ZM97.9375 17.968H94.3215V24.624C94.3215 25.1787 94.4602 25.584 94.7375 25.84C95.0148 26.096 95.4202 26.2453 95.9535 26.288C96.4868 26.3093 97.1482 26.2987 97.9375 26.256V30C95.1002 30.32 93.0948 30.0533 91.9215 29.2C90.7695 28.3467 90.1935 26.8213 90.1935 24.624V17.968H87.4095V14H90.1935V10.768L94.3215 9.52V14H97.9375V17.968ZM113.98 28.016C112.337 29.6373 110.332 30.448 107.964 30.448C105.596 30.448 103.591 29.6373 101.948 28.016C100.327 26.3733 99.516 24.368 99.516 22C99.516 19.632 100.327 17.6373 101.948 16.016C103.591 14.3733 105.596 13.552 107.964 13.552C110.332 13.552 112.337 14.3733 113.98 16.016C115.623 17.6373 116.444 19.632 116.444 22C116.444 24.368 115.623 26.3733 113.98 28.016ZM104.86 25.168C105.692 26 106.727 26.416 107.964 26.416C109.201 26.416 110.236 26 111.068 25.168C111.9 24.336 112.316 23.28 112.316 22C112.316 20.72 111.9 19.664 111.068 18.832C110.236 18 109.201 17.584 107.964 17.584C106.727 17.584 105.692 18 104.86 18.832C104.049 19.664 103.644 20.72 103.644 22C103.644 23.28 104.049 24.336 104.86 25.168ZM123.476 16.752C123.86 15.728 124.489 14.96 125.364 14.448C126.26 13.936 127.252 13.68 128.34 13.68V18.288C127.081 18.1387 125.951 18.3947 124.948 19.056C123.967 19.7173 123.476 20.816 123.476 22.352V30H119.348V14H123.476V16.752ZM153.25 17.968V19.696C153.25 22.896 152.226 25.488 150.178 27.472C148.13 29.456 145.485 30.448 142.242 30.448C138.786 30.448 135.917 29.328 133.634 27.088C131.373 24.8267 130.242 22.0747 130.242 18.832C130.242 15.568 131.362 12.8053 133.602 10.544C135.864 8.28267 138.658 7.152 141.986 7.152C144.077 7.152 145.986 7.632 147.714 8.592C149.442 9.53067 150.786 10.7893 151.746 12.368L147.97 14.544C147.437 13.6267 146.626 12.88 145.538 12.304C144.472 11.728 143.277 11.44 141.954 11.44C139.821 11.44 138.061 12.144 136.674 13.552C135.309 14.9387 134.626 16.6987 134.626 18.832C134.626 20.944 135.32 22.6933 136.706 24.08C138.114 25.4453 139.97 26.128 142.274 26.128C143.981 26.128 145.389 25.7547 146.498 25.008C147.629 24.24 148.397 23.1947 148.802 21.872H142.018V17.968H153.25ZM159.847 16.752C160.231 15.728 160.861 14.96 161.735 14.448C162.631 13.936 163.623 13.68 164.711 13.68V18.288C163.453 18.1387 162.322 18.3947 161.319 19.056C160.338 19.7173 159.847 20.816 159.847 22.352V30H155.719V14H159.847V16.752ZM180.164 28.016C178.521 29.6373 176.516 30.448 174.148 30.448C171.78 30.448 169.774 29.6373 168.132 28.016C166.51 26.3733 165.7 24.368 165.7 22C165.7 19.632 166.51 17.6373 168.132 16.016C169.774 14.3733 171.78 13.552 174.148 13.552C176.516 13.552 178.521 14.3733 180.164 16.016C181.806 17.6373 182.628 19.632 182.628 22C182.628 24.368 181.806 26.3733 180.164 28.016ZM171.044 25.168C171.876 26 172.91 26.416 174.148 26.416C175.385 26.416 176.42 26 177.252 25.168C178.084 24.336 178.5 23.28 178.5 22C178.5 20.72 178.084 19.664 177.252 18.832C176.42 18 175.385 17.584 174.148 17.584C172.91 17.584 171.876 18 171.044 18.832C170.233 19.664 169.828 20.72 169.828 22C169.828 23.28 170.233 24.336 171.044 25.168ZM202.923 14H207.307L202.219 30H198.283L195.339 20.304L192.395 30H188.459L183.371 14H187.755L190.475 23.824L193.387 14H197.291L200.203 23.856L202.923 14Z" fill="#222222"/>
<g clip-path="url(#clip0_4511_36164)">
<path d="M10.475 14.1901L12.8552 21.5717H13.0636L15.0068 17.3093H18.5293L14.5348 26.5558H11.25L6.15389 12.1312H9.6313H9.81041H24.3204L26 8H0L8.22434 30H17.0581L23.4835 14.1901H10.475Z" fill="url(#paint0_linear_4511_36164)"/>
</g>
<defs>
<linearGradient id="paint0_linear_4511_36164" x1="0" y1="19.0006" x2="26" y2="19.0006" gradientUnits="userSpaceOnUse">
<stop stop-color="#006E8B"/>
<stop offset="1" stop-color="#00808B"/>
</linearGradient>
<clipPath id="clip0_4511_36164">
<rect width="26" height="22" fill="white" transform="translate(0 8)"/>
</clipPath>
</defs>
</svg>
