<svg width="171" height="24" viewBox="0 0 171 24" fill="none" xmlns="http://www.w3.org/2000/svg">
<path d="M7.616 23L0.096 0.599998H4.896L10.368 17.816L15.808 0.599998H20.64L13.088 23H7.616ZM23.0547 16.696C23.6094 18.7013 25.1134 19.704 27.5667 19.704C29.1454 19.704 30.3401 19.1707 31.1508 18.104L34.4788 20.024C32.9001 22.3067 30.5747 23.448 27.5027 23.448C24.8574 23.448 22.7347 22.648 21.1347 21.048C19.5347 19.448 18.7347 17.432 18.7347 15C18.7347 12.5893 19.5241 10.584 21.1027 8.984C22.6814 7.36267 24.7081 6.552 27.1827 6.552C29.5294 6.552 31.4601 7.36267 32.9747 8.984C34.5107 10.6053 35.2787 12.6107 35.2787 15C35.2787 15.5333 35.2254 16.0987 35.1187 16.696H23.0547ZM22.9907 13.496H31.1508C30.9161 12.408 30.4254 11.5973 29.6788 11.064C28.9534 10.5307 28.1214 10.264 27.1827 10.264C26.0734 10.264 25.1561 10.552 24.4307 11.128C23.7054 11.6827 23.2254 12.472 22.9907 13.496ZM41.3435 11.544C41.3435 11.9707 41.6208 12.3227 42.1755 12.6C42.7515 12.856 43.4448 13.0907 44.2555 13.304C45.0662 13.496 45.8768 13.752 46.6875 14.072C47.4982 14.3707 48.1808 14.8827 48.7355 15.608C49.3115 16.3333 49.5995 17.24 49.5995 18.328C49.5995 19.9707 48.9808 21.24 47.7435 22.136C46.5275 23.0107 45.0022 23.448 43.1675 23.448C39.8822 23.448 37.6422 22.1787 36.4475 19.64L40.0315 17.624C40.5008 19.0107 41.5462 19.704 43.1675 19.704C44.6395 19.704 45.3755 19.2453 45.3755 18.328C45.3755 17.9013 45.0875 17.56 44.5115 17.304C43.9568 17.0267 43.2742 16.7813 42.4635 16.568C41.6528 16.3547 40.8422 16.088 40.0315 15.768C39.2208 15.448 38.5275 14.9467 37.9515 14.264C37.3968 13.56 37.1195 12.6853 37.1195 11.64C37.1195 10.0613 37.6955 8.824 38.8475 7.928C40.0208 7.01067 41.4715 6.552 43.1995 6.552C44.5008 6.552 45.6848 6.85067 46.7515 7.448C47.8182 8.024 48.6608 8.856 49.2795 9.944L45.7595 11.864C45.2475 10.776 44.3942 10.232 43.1995 10.232C42.6662 10.232 42.2182 10.3493 41.8555 10.584C41.5142 10.8187 41.3435 11.1387 41.3435 11.544ZM60.9375 10.968H57.3215V17.624C57.3215 18.1787 57.4602 18.584 57.7375 18.84C58.0148 19.096 58.4202 19.2453 58.9535 19.288C59.4868 19.3093 60.1482 19.2987 60.9375 19.256V23C58.1002 23.32 56.0948 23.0533 54.9215 22.2C53.7695 21.3467 53.1935 19.8213 53.1935 17.624V10.968H50.4095V7H53.1935V3.768L57.3215 2.52V7H60.9375V10.968ZM76.98 21.016C75.3373 22.6373 73.332 23.448 70.964 23.448C68.596 23.448 66.5907 22.6373 64.948 21.016C63.3267 19.3733 62.516 17.368 62.516 15C62.516 12.632 63.3267 10.6373 64.948 9.016C66.5907 7.37333 68.596 6.552 70.964 6.552C73.332 6.552 75.3373 7.37333 76.98 9.016C78.6227 10.6373 79.444 12.632 79.444 15C79.444 17.368 78.6227 19.3733 76.98 21.016ZM67.86 18.168C68.692 19 69.7267 19.416 70.964 19.416C72.2013 19.416 73.236 19 74.068 18.168C74.9 17.336 75.316 16.28 75.316 15C75.316 13.72 74.9 12.664 74.068 11.832C73.236 11 72.2013 10.584 70.964 10.584C69.7267 10.584 68.692 11 67.86 11.832C67.0493 12.664 66.644 13.72 66.644 15C66.644 16.28 67.0493 17.336 67.86 18.168ZM86.476 9.752C86.86 8.728 87.4893 7.96 88.364 7.448C89.26 6.936 90.252 6.68 91.34 6.68V11.288C90.0813 11.1387 88.9507 11.3947 87.948 12.056C86.9667 12.7173 86.476 13.816 86.476 15.352V23H82.348V7H86.476V9.752ZM116.25 10.968V12.696C116.25 15.896 115.226 18.488 113.178 20.472C111.13 22.456 108.485 23.448 105.242 23.448C101.786 23.448 98.9169 22.328 96.6342 20.088C94.3729 17.8267 93.2422 15.0747 93.2422 11.832C93.2422 8.568 94.3622 5.80533 96.6022 3.544C98.8636 1.28267 101.658 0.151999 104.986 0.151999C107.077 0.151999 108.986 0.631999 110.714 1.592C112.442 2.53067 113.786 3.78933 114.746 5.368L110.97 7.544C110.437 6.62667 109.626 5.88 108.538 5.304C107.472 4.728 106.277 4.44 104.954 4.44C102.821 4.44 101.061 5.144 99.6742 6.552C98.3089 7.93867 97.6262 9.69867 97.6262 11.832C97.6262 13.944 98.3196 15.6933 99.7062 17.08C101.114 18.4453 102.97 19.128 105.274 19.128C106.981 19.128 108.389 18.7547 109.498 18.008C110.629 17.24 111.397 16.1947 111.802 14.872H105.018V10.968H116.25ZM122.847 9.752C123.231 8.728 123.861 7.96 124.735 7.448C125.631 6.936 126.623 6.68 127.711 6.68V11.288C126.453 11.1387 125.322 11.3947 124.319 12.056C123.338 12.7173 122.847 13.816 122.847 15.352V23H118.719V7H122.847V9.752ZM143.164 21.016C141.521 22.6373 139.516 23.448 137.148 23.448C134.78 23.448 132.774 22.6373 131.132 21.016C129.51 19.3733 128.7 17.368 128.7 15C128.7 12.632 129.51 10.6373 131.132 9.016C132.774 7.37333 134.78 6.552 137.148 6.552C139.516 6.552 141.521 7.37333 143.164 9.016C144.806 10.6373 145.628 12.632 145.628 15C145.628 17.368 144.806 19.3733 143.164 21.016ZM134.044 18.168C134.876 19 135.91 19.416 137.148 19.416C138.385 19.416 139.42 19 140.252 18.168C141.084 17.336 141.5 16.28 141.5 15C141.5 13.72 141.084 12.664 140.252 11.832C139.42 11 138.385 10.584 137.148 10.584C135.91 10.584 134.876 11 134.044 11.832C133.233 12.664 132.828 13.72 132.828 15C132.828 16.28 133.233 17.336 134.044 18.168ZM165.923 7H170.307L165.219 23H161.283L158.339 13.304L155.395 23H151.459L146.371 7H150.755L153.475 16.824L156.387 7H160.291L163.203 16.856L165.923 7Z" fill="#222222"/>
</svg>
