<svg width="20" height="20" viewBox="0 0 20 20" fill="none" xmlns="http://www.w3.org/2000/svg">
<path d="M18.2665 9.66732C16.5831 5.75898 13.4165 3.33398 9.99981 3.33398C6.58314 3.33398 3.41648 5.75898 1.73314 9.66732C1.68726 9.77246 1.66357 9.88594 1.66357 10.0007C1.66357 10.1154 1.68726 10.2288 1.73314 10.334C3.41648 14.2423 6.58314 16.6673 9.99981 16.6673C13.4165 16.6673 16.5831 14.2423 18.2665 10.334C18.3124 10.2288 18.336 10.1154 18.336 10.0007C18.336 9.88594 18.3124 9.77246 18.2665 9.66732ZM9.99981 15.0007C7.35814 15.0007 4.85814 13.0923 3.41648 10.0007C4.85814 6.90898 7.35814 5.00065 9.99981 5.00065C12.6415 5.00065 15.1415 6.90898 16.5831 10.0007C15.1415 13.0923 12.6415 15.0007 9.99981 15.0007ZM9.99981 6.66732C9.34054 6.66732 8.69607 6.86281 8.14791 7.22909C7.59975 7.59536 7.1725 8.11595 6.92021 8.72504C6.66792 9.33413 6.60191 10.0043 6.73053 10.651C6.85914 11.2976 7.17661 11.8915 7.64279 12.3577C8.10896 12.8238 8.70291 13.1413 9.34951 13.2699C9.99611 13.3986 10.6663 13.3325 11.2754 13.0802C11.8845 12.828 12.4051 12.4007 12.7714 11.8526C13.1376 11.3044 13.3331 10.6599 13.3331 10.0007C13.3331 9.1166 12.982 8.26875 12.3568 7.64363C11.7317 7.01851 10.8839 6.66732 9.99981 6.66732ZM9.99981 11.6673C9.67018 11.6673 9.34794 11.5696 9.07386 11.3864C8.79978 11.2033 8.58616 10.943 8.46001 10.6385C8.33387 10.3339 8.30086 9.9988 8.36517 9.6755C8.42948 9.3522 8.58821 9.05523 8.8213 8.82214C9.05439 8.58905 9.35136 8.43032 9.67466 8.36601C9.99796 8.3017 10.3331 8.33471 10.6376 8.46085C10.9422 8.587 11.2025 8.80062 11.3856 9.0747C11.5687 9.34878 11.6665 9.67102 11.6665 10.0007C11.6665 10.4427 11.4909 10.8666 11.1783 11.1792C10.8658 11.4917 10.4418 11.6673 9.99981 11.6673Z" fill="#0D1B1D"/>
</svg>
